<?xml version="1.0" encoding="UTF-8" standalone="no"?>
<!DOCTYPE svg PUBLIC "-//W3C//DTD SVG 1.1//EN"
 "http://www.w3.org/Graphics/SVG/1.1/DTD/svg11.dtd">
<!-- Generated by graphviz version 2.40.1 (20161225.0304)
 -->
<!-- Title: G Pages: 1 -->
<svg width="671pt" height="188pt"
 viewBox="0.00 0.00 671.00 188.00" xmlns="http://www.w3.org/2000/svg" xmlns:xlink="http://www.w3.org/1999/xlink">
<g id="graph0" class="graph" transform="scale(1 1) rotate(0) translate(4 184)">
<title>G</title>
<polygon fill="#ffffff" stroke="transparent" points="-4,4 -4,-184 667,-184 667,4 -4,4"/>
<!-- Skateboard -->
<g id="node1" class="node">
<title>Skateboard</title>
<polygon fill="none" stroke="#000000" points="361,-180 295,-180 295,-144 361,-144 361,-180"/>
<text text-anchor="middle" x="328" y="-159.2" font-family="Times,serif" font-size="11.00" fill="#000000">Skateboard</text>
</g>
<!-- Hardware -->
<g id="node2" class="node">
<title>Hardware</title>
<polygon fill="none" stroke="#000000" points="167,-108 107,-108 107,-72 167,-72 167,-108"/>
<text text-anchor="middle" x="137" y="-87.2" font-family="Times,serif" font-size="11.00" fill="#000000">Hardware</text>
</g>
<!-- Skateboard&#45;&gt;Hardware -->
<g id="edge1" class="edge">
<title>Skateboard&#45;&gt;Hardware</title>
<path fill="none" stroke="#000000" d="M294.7303,-162C240.0076,-162 137,-162 137,-162 137,-162 137,-113.1686 137,-113.1686"/>
<polygon fill="#000000" stroke="#000000" points="138.7501,-113.1686 137,-108.1686 135.2501,-113.1687 138.7501,-113.1686"/>
</g>
<!-- Software -->
<g id="node3" class="node">
<title>Software</title>
<polygon fill="none" stroke="#000000" points="356,-108 300,-108 300,-72 356,-72 356,-108"/>
<text text-anchor="middle" x="328" y="-87.2" font-family="Times,serif" font-size="11.00" fill="#000000">Software</text>
</g>
<!-- Skateboard&#45;&gt;Software -->
<g id="edge2" class="edge">
<title>Skateboard&#45;&gt;Software</title>
<path fill="none" stroke="#000000" d="M328,-143.8314C328,-143.8314 328,-113.4133 328,-113.4133"/>
<polygon fill="#000000" stroke="#000000" points="329.7501,-113.4132 328,-108.4133 326.2501,-113.4133 329.7501,-113.4132"/>
</g>
<!-- Integration and Test -->
<g id="node4" class="node">
<title>Integration and Test</title>
<polygon fill="none" stroke="#000000" points="577.5,-108 472.5,-108 472.5,-72 577.5,-72 577.5,-108"/>
<text text-anchor="middle" x="525" y="-87.2" font-family="Times,serif" font-size="11.00" fill="#000000">Integration and Test</text>
</g>
<!-- Skateboard&#45;&gt;Integration and Test -->
<g id="edge3" class="edge">
<title>Skateboard&#45;&gt;Integration and Test</title>
<path fill="none" stroke="#000000" d="M361.4184,-162C417.6233,-162 525,-162 525,-162 525,-162 525,-113.1686 525,-113.1686"/>
<polygon fill="#000000" stroke="#000000" points="526.7501,-113.1686 525,-108.1686 523.2501,-113.1687 526.7501,-113.1686"/>
</g>
<!-- Board -->
<g id="node5" class="node">
<title>Board</title>
<polygon fill="none" stroke="#000000" points="54,-36 0,-36 0,0 54,0 54,-36"/>
<text text-anchor="middle" x="27" y="-15.2" font-family="Times,serif" font-size="11.00" fill="#000000">Board</text>
</g>
<!-- Hardware&#45;&gt;Board -->
<g id="edge4" class="edge">
<title>Hardware&#45;&gt;Board</title>
<path fill="none" stroke="#000000" d="M106.942,-90C74.373,-90 27,-90 27,-90 27,-90 27,-41.1686 27,-41.1686"/>
<polygon fill="#000000" stroke="#000000" points="28.7501,-41.1686 27,-36.1686 25.2501,-41.1687 28.7501,-41.1686"/>
</g>
<!-- Wheels -->
<g id="node6" class="node">
<title>Wheels</title>
<polygon fill="none" stroke="#000000" points="126,-36 72,-36 72,0 126,0 126,-36"/>
<text text-anchor="middle" x="99" y="-15.2" font-family="Times,serif" font-size="11.00" fill="#000000">Wheels</text>
</g>
<!-- Hardware&#45;&gt;Wheels -->
<g id="edge5" class="edge">
<title>Hardware&#45;&gt;Wheels</title>
<path fill="none" stroke="#000000" d="M116.5,-71.8314C116.5,-71.8314 116.5,-41.4133 116.5,-41.4133"/>
<polygon fill="#000000" stroke="#000000" points="118.2501,-41.4132 116.5,-36.4133 114.7501,-41.4133 118.2501,-41.4132"/>
</g>
<!-- Mounting -->
<g id="node7" class="node">
<title>Mounting</title>
<polygon fill="none" stroke="#000000" points="204,-36 144,-36 144,0 204,0 204,-36"/>
<text text-anchor="middle" x="174" y="-15.2" font-family="Times,serif" font-size="11.00" fill="#000000">Mounting</text>
</g>
<!-- Hardware&#45;&gt;Mounting -->
<g id="edge6" class="edge">
<title>Hardware&#45;&gt;Mounting</title>
<path fill="none" stroke="#000000" d="M155.5,-71.8314C155.5,-71.8314 155.5,-41.4133 155.5,-41.4133"/>
<polygon fill="#000000" stroke="#000000" points="157.2501,-41.4132 155.5,-36.4133 153.7501,-41.4133 157.2501,-41.4132"/>
</g>
<!-- OS -->
<g id="node8" class="node">
<title>OS</title>
<polygon fill="none" stroke="#000000" points="276,-36 222,-36 222,0 276,0 276,-36"/>
<text text-anchor="middle" x="249" y="-15.2" font-family="Times,serif" font-size="11.00" fill="#000000">OS</text>
</g>
<!-- Software&#45;&gt;OS -->
<g id="edge7" class="edge">
<title>Software&#45;&gt;OS</title>
<path fill="none" stroke="#000000" d="M299.9251,-90C277.2182,-90 249,-90 249,-90 249,-90 249,-41.1686 249,-41.1686"/>
<polygon fill="#000000" stroke="#000000" points="250.7501,-41.1686 249,-36.1686 247.2501,-41.1687 250.7501,-41.1686"/>
</g>
<!-- GPS Driver -->
<g id="node9" class="node">
<title>GPS Driver</title>
<polygon fill="none" stroke="#000000" points="362,-36 294,-36 294,0 362,0 362,-36"/>
<text text-anchor="middle" x="328" y="-15.2" font-family="Times,serif" font-size="11.00" fill="#000000">GPS Driver</text>
</g>
<!-- Software&#45;&gt;GPS Driver -->
<g id="edge8" class="edge">
<title>Software&#45;&gt;GPS Driver</title>
<path fill="none" stroke="#000000" d="M328,-71.8314C328,-71.8314 328,-41.4133 328,-41.4133"/>
<polygon fill="#000000" stroke="#000000" points="329.7501,-41.4132 328,-36.4133 326.2501,-41.4133 329.7501,-41.4132"/>
</g>
<!-- Route Tracking -->
<g id="node10" class="node">
<title>Route Tracking</title>
<polygon fill="none" stroke="#000000" points="465.5,-36 380.5,-36 380.5,0 465.5,0 465.5,-36"/>
<text text-anchor="middle" x="423" y="-15.2" font-family="Times,serif" font-size="11.00" fill="#000000">Route Tracking</text>
</g>
<!-- Software&#45;&gt;Route Tracking -->
<g id="edge9" class="edge">
<title>Software&#45;&gt;Route Tracking</title>
<path fill="none" stroke="#000000" d="M356.2459,-90C384.2493,-90 423,-90 423,-90 423,-90 423,-41.1686 423,-41.1686"/>
<polygon fill="#000000" stroke="#000000" points="424.7501,-41.1686 423,-36.1686 421.2501,-41.1687 424.7501,-41.1686"/>
</g>
<!-- Fixed Platform -->
<g id="node11" class="node">
<title>Fixed Platform</title>
<polygon fill="none" stroke="#000000" points="566.5,-36 483.5,-36 483.5,0 566.5,0 566.5,-36"/>
<text text-anchor="middle" x="525" y="-15.2" font-family="Times,serif" font-size="11.00" fill="#000000">Fixed Platform</text>
</g>
<!-- Integration and Test&#45;&gt;Fixed Platform -->
<g id="edge10" class="edge">
<title>Integration and Test&#45;&gt;Fixed Platform</title>
<path fill="none" stroke="#000000" d="M525,-71.8314C525,-71.8314 525,-41.4133 525,-41.4133"/>
<polygon fill="#000000" stroke="#000000" points="526.7501,-41.4132 525,-36.4133 523.2501,-41.4133 526.7501,-41.4132"/>
</g>
<!-- Street Testing -->
<g id="node12" class="node">
<title>Street Testing</title>
<polygon fill="none" stroke="#000000" points="663,-36 585,-36 585,0 663,0 663,-36"/>
<text text-anchor="middle" x="624" y="-15.2" font-family="Times,serif" font-size="11.00" fill="#000000">Street Testing</text>
</g>
<!-- Integration and Test&#45;&gt;Street Testing -->
<g id="edge11" class="edge">
<title>Integration and Test&#45;&gt;Street Testing</title>
<path fill="none" stroke="#000000" d="M572,-71.8314C572,-50.502 572,-18 572,-18 572,-18 579.8539,-18 579.8539,-18"/>
<polygon fill="#000000" stroke="#000000" points="579.854,-19.7501 584.8539,-18 579.8539,-16.2501 579.854,-19.7501"/>
</g>
</g>
</svg>
