<?xml version="1.0" encoding="UTF-8" standalone="no"?>
<!DOCTYPE svg PUBLIC "-//W3C//DTD SVG 1.1//EN"
 "http://www.w3.org/Graphics/SVG/1.1/DTD/svg11.dtd">
<!-- Generated by graphviz version 2.38.0 (20140413.2041)
 -->
<!-- Title: G Pages: 1 -->
<svg width="503pt" height="386pt"
 viewBox="0.00 0.00 502.50 386.00" xmlns="http://www.w3.org/2000/svg" xmlns:xlink="http://www.w3.org/1999/xlink">
<g id="graph0" class="graph" transform="scale(1 1) rotate(0) translate(4 382)">
<title>G</title>
<polygon fill="white" stroke="none" points="-4,4 -4,-382 498.5,-382 498.5,4 -4,4"/>
<!-- UUV Mission Data Loss&lt;br/&gt;p=0.005 -->
<g id="node1" class="node"><title>UUV Mission Data Loss&lt;br/&gt;p=0.005</title>
<polygon fill="none" stroke="black" points="102.5,-323.5 102.5,-373.5 166.5,-373.5 166.5,-323.5 102.5,-323.5"/>
<text text-anchor="start" x="103.5" y="-363.7" font-family="Times New Roman,serif" font-size="11.00">UUV Mission</text>
<text text-anchor="start" x="123.5" y="-351.7" font-family="Times New Roman,serif" font-size="11.00">Data</text>
<text text-anchor="start" x="123.5" y="-339.7" font-family="Times New Roman,serif" font-size="11.00">Loss</text>
<text text-anchor="start" x="116.5" y="-327.7" font-family="Times New Roman,serif" font-size="11.00">p=0.005</text>
<image xlink:href="OR_node.svg" width="50px" height="39px" preserveAspectRatio="xMinYMin meet" x="109.5" y="-323.5"/>
<image xlink:href="OR_node_bottom.svg" width="50px" height="36px" preserveAspectRatio="xMinYMin meet" x="109.5" y="-284.5"/>
</g>
<!-- Communication Loss&lt;br/&gt;p=0.003 -->
<g id="node2" class="node"><title>Communication Loss&lt;br/&gt;p=0.003</title>
<polygon fill="none" stroke="black" points="10.5,-132.5 10.5,-170.5 81.5,-170.5 81.5,-132.5 10.5,-132.5"/>
<text text-anchor="start" x="11.5" y="-160.7" font-family="Times New Roman,serif" font-size="11.00">Communication</text>
<text text-anchor="start" x="35" y="-148.7" font-family="Times New Roman,serif" font-size="11.00">Loss</text>
<text text-anchor="start" x="28" y="-136.7" font-family="Times New Roman,serif" font-size="11.00">p=0.003</text>
</g>
<!-- UUV Mission Data Loss&lt;br/&gt;p=0.005&#45;&gt;Communication Loss&lt;br/&gt;p=0.003 -->
<g id="edge1" class="edge"><title>UUV Mission Data Loss&lt;br/&gt;p=0.005:or:s&#45;&gt;Communication Loss&lt;br/&gt;p=0.003:top:n</title>
<path fill="none" stroke="black" stroke-width="2" d="M134.5,-283.5C134.5,-283.5 49.2285,-174.973 46.5638,-171.581"/>
<polygon fill="black" stroke="black" stroke-width="2" points="46.5,-171.5 46.5,-171.5 46.5,-171.5 46.5,-171.5"/>
</g>
<!-- Power Down&lt;br/&gt;p=0.002 -->
<g id="node3" class="node"><title>Power Down&lt;br/&gt;p=0.002</title>
<polygon fill="none" stroke="black" points="115.5,-166.5 115.5,-204.5 153.5,-204.5 153.5,-166.5 115.5,-166.5"/>
<text text-anchor="start" x="119.5" y="-194.7" font-family="Times New Roman,serif" font-size="11.00">Power</text>
<text text-anchor="start" x="120.5" y="-182.7" font-family="Times New Roman,serif" font-size="11.00">Down</text>
<text text-anchor="start" x="116.5" y="-170.7" font-family="Times New Roman,serif" font-size="11.00">p=0.002</text>
<image xlink:href="AND_node.svg" width="38px" height="33px" preserveAspectRatio="xMinYMin meet" x="115.5" y="-166.5"/>
<image xlink:href="OR_node_bottom.svg" width="38px" height="36px" preserveAspectRatio="xMinYMin meet" x="115.5" y="-133.5"/>
</g>
<!-- UUV Mission Data Loss&lt;br/&gt;p=0.005&#45;&gt;Power Down&lt;br/&gt;p=0.002 -->
<g id="edge2" class="edge"><title>UUV Mission Data Loss&lt;br/&gt;p=0.005:or:s&#45;&gt;Power Down&lt;br/&gt;p=0.002:top:n</title>
<path fill="none" stroke="black" stroke-width="2" d="M134.5,-283.5C134.5,-283.5 134.5,-207.918 134.5,-205.557"/>
<polygon fill="black" stroke="black" stroke-width="2" points="134.5,-205.5 134.5,-205.5 134.5,-205.5 134.5,-205.5"/>
</g>
<!-- All Sensors Fail&lt;br/&gt;p=3.0e&#45;09 -->
<g id="node4" class="node"><title>All Sensors Fail&lt;br/&gt;p=3.0e&#45;09</title>
<polygon fill="none" stroke="black" points="264.5,-166.5 264.5,-204.5 317.5,-204.5 317.5,-166.5 264.5,-166.5"/>
<text text-anchor="start" x="265.5" y="-194.7" font-family="Times New Roman,serif" font-size="11.00">All Sensors</text>
<text text-anchor="start" x="283" y="-182.7" font-family="Times New Roman,serif" font-size="11.00">Fail</text>
<text text-anchor="start" x="268.5" y="-170.7" font-family="Times New Roman,serif" font-size="11.00">p=3.0e&#45;09</text>
<image xlink:href="AND_node.svg" width="50px" height="33px" preserveAspectRatio="xMinYMin meet" x="266" y="-166.5"/>
<image xlink:href="OR_node_bottom.svg" width="50px" height="36px" preserveAspectRatio="xMinYMin meet" x="266" y="-133.5"/>
</g>
<!-- UUV Mission Data Loss&lt;br/&gt;p=0.005&#45;&gt;All Sensors Fail&lt;br/&gt;p=3.0e&#45;09 -->
<g id="edge3" class="edge"><title>UUV Mission Data Loss&lt;br/&gt;p=0.005:or:s&#45;&gt;All Sensors Fail&lt;br/&gt;p=3.0e&#45;09:top:n</title>
<path fill="none" stroke="black" stroke-width="2" d="M134.5,-283.5C134.5,-283.5 286.632,-207.918 291.386,-205.557"/>
<polygon fill="black" stroke="black" stroke-width="2" points="291.5,-205.5 291.5,-205.5 291.5,-205.5 291.5,-205.5"/>
</g>
<!-- Main Power Down&lt;br/&gt;p=0.02 -->
<g id="node5" class="node"><title>Main Power Down&lt;br/&gt;p=0.02</title>
<polygon fill="none" stroke="black" points="8.5,-10 8.5,-48 65.5,-48 65.5,-10 8.5,-10"/>
<text text-anchor="start" x="9.5" y="-38.2" font-family="Times New Roman,serif" font-size="11.00">Main Power</text>
<text text-anchor="start" x="23" y="-26.2" font-family="Times New Roman,serif" font-size="11.00">Down</text>
<text text-anchor="start" x="21.5" y="-14.2" font-family="Times New Roman,serif" font-size="11.00">p=0.02</text>
</g>
<!-- Power Down&lt;br/&gt;p=0.002&#45;&gt;Main Power Down&lt;br/&gt;p=0.02 -->
<g id="edge7" class="edge"><title>Power Down&lt;br/&gt;p=0.002:and:s&#45;&gt;Main Power Down&lt;br/&gt;p=0.02:top:n</title>
<path fill="none" stroke="black" stroke-width="2" d="M134.5,-132.5C134.5,-132.5 40.5076,-51.589 37.5703,-49.0605"/>
<polygon fill="black" stroke="black" stroke-width="2" points="37.5,-49 37.5,-49 37.5,-49 37.5,-49"/>
</g>
<!-- Backup Power Down&lt;br/&gt;p=0.08 -->
<g id="node6" class="node"><title>Backup Power Down&lt;br/&gt;p=0.08</title>
<polygon fill="none" stroke="black" points="99.5,-10 99.5,-48 168.5,-48 168.5,-10 99.5,-10"/>
<text text-anchor="start" x="100.5" y="-38.2" font-family="Times New Roman,serif" font-size="11.00">Backup Power</text>
<text text-anchor="start" x="120" y="-26.2" font-family="Times New Roman,serif" font-size="11.00">Down</text>
<text text-anchor="start" x="118.5" y="-14.2" font-family="Times New Roman,serif" font-size="11.00">p=0.08</text>
</g>
<!-- Power Down&lt;br/&gt;p=0.002&#45;&gt;Backup Power Down&lt;br/&gt;p=0.08 -->
<g id="edge8" class="edge"><title>Power Down&lt;br/&gt;p=0.002:and:s&#45;&gt;Backup Power Down&lt;br/&gt;p=0.08:top:n</title>
<path fill="none" stroke="black" stroke-width="2" d="M134.5,-132.5C134.5,-132.5 134.5,-51.589 134.5,-49.0605"/>
<polygon fill="black" stroke="black" stroke-width="2" points="134.5,-49 134.5,-49 134.5,-49 134.5,-49"/>
</g>
<!-- Low Resolution Sensor 1 Fails&lt;br/&gt;p=0.001 -->
<g id="node7" class="node"><title>Low Resolution Sensor 1 Fails&lt;br/&gt;p=0.001</title>
<polygon fill="none" stroke="black" points="202.5,-4 202.5,-54 274.5,-54 274.5,-4 202.5,-4"/>
<text text-anchor="start" x="203.5" y="-44.2" font-family="Times New Roman,serif" font-size="11.00">Low Resolution</text>
<text text-anchor="start" x="219" y="-32.2" font-family="Times New Roman,serif" font-size="11.00">Sensor 1</text>
<text text-anchor="start" x="228" y="-20.2" font-family="Times New Roman,serif" font-size="11.00">Fails</text>
<text text-anchor="start" x="220.5" y="-8.2" font-family="Times New Roman,serif" font-size="11.00">p=0.001</text>
</g>
<!-- All Sensors Fail&lt;br/&gt;p=3.0e&#45;09&#45;&gt;Low Resolution Sensor 1 Fails&lt;br/&gt;p=0.001 -->
<g id="edge4" class="edge"><title>All Sensors Fail&lt;br/&gt;p=3.0e&#45;09:and:s&#45;&gt;Low Resolution Sensor 1 Fails&lt;br/&gt;p=0.001:top:n</title>
<path fill="none" stroke="black" stroke-width="2" d="M291.5,-132.5C291.5,-132.5 240.143,-57.403 238.538,-55.0562"/>
<polygon fill="black" stroke="black" stroke-width="2" points="238.5,-55 238.5,-55 238.5,-55 238.5,-55"/>
</g>
<!-- Low Resolution Sensor 2 Fails&lt;br/&gt;p=0.001 -->
<g id="node8" class="node"><title>Low Resolution Sensor 2 Fails&lt;br/&gt;p=0.001</title>
<polygon fill="none" stroke="black" points="308.5,-4 308.5,-54 380.5,-54 380.5,-4 308.5,-4"/>
<text text-anchor="start" x="309.5" y="-44.2" font-family="Times New Roman,serif" font-size="11.00">Low Resolution</text>
<text text-anchor="start" x="325" y="-32.2" font-family="Times New Roman,serif" font-size="11.00">Sensor 2</text>
<text text-anchor="start" x="334" y="-20.2" font-family="Times New Roman,serif" font-size="11.00">Fails</text>
<text text-anchor="start" x="326.5" y="-8.2" font-family="Times New Roman,serif" font-size="11.00">p=0.001</text>
</g>
<!-- All Sensors Fail&lt;br/&gt;p=3.0e&#45;09&#45;&gt;Low Resolution Sensor 2 Fails&lt;br/&gt;p=0.001 -->
<g id="edge5" class="edge"><title>All Sensors Fail&lt;br/&gt;p=3.0e&#45;09:and:s&#45;&gt;Low Resolution Sensor 2 Fails&lt;br/&gt;p=0.001:top:n</title>
<path fill="none" stroke="black" stroke-width="2" d="M291.5,-132.5C291.5,-132.5 342.857,-57.403 344.462,-55.0562"/>
<polygon fill="black" stroke="black" stroke-width="2" points="344.5,-55 344.5,-55 344.5,-55 344.5,-55"/>
</g>
<!-- High Resolution Sensor 3 Fails&lt;br/&gt;p=0.003 -->
<g id="node9" class="node"><title>High Resolution Sensor 3 Fails&lt;br/&gt;p=0.003</title>
<polygon fill="none" stroke="black" points="414.5,-4 414.5,-54 486.5,-54 486.5,-4 414.5,-4"/>
<text text-anchor="start" x="415.5" y="-44.2" font-family="Times New Roman,serif" font-size="11.00">High Resolution</text>
<text text-anchor="start" x="431" y="-32.2" font-family="Times New Roman,serif" font-size="11.00">Sensor 3</text>
<text text-anchor="start" x="440" y="-20.2" font-family="Times New Roman,serif" font-size="11.00">Fails</text>
<text text-anchor="start" x="432.5" y="-8.2" font-family="Times New Roman,serif" font-size="11.00">p=0.003</text>
</g>
<!-- All Sensors Fail&lt;br/&gt;p=3.0e&#45;09&#45;&gt;High Resolution Sensor 3 Fails&lt;br/&gt;p=0.003 -->
<g id="edge6" class="edge"><title>All Sensors Fail&lt;br/&gt;p=3.0e&#45;09:and:s&#45;&gt;High Resolution Sensor 3 Fails&lt;br/&gt;p=0.003:top:n</title>
<path fill="none" stroke="black" stroke-width="2" d="M291.5,-132.5C291.5,-132.5 445.57,-57.403 450.385,-55.0562"/>
<polygon fill="black" stroke="black" stroke-width="2" points="450.5,-55 450.5,-55 450.5,-55 450.5,-55"/>
</g>
</g>
</svg>
