<?xml version="1.0" encoding="UTF-8" standalone="no"?>
<!DOCTYPE svg PUBLIC "-//W3C//DTD SVG 1.1//EN"
 "http://www.w3.org/Graphics/SVG/1.1/DTD/svg11.dtd">
<!-- Generated by graphviz version 2.50.0 (0)
 -->
<!-- Title: G Pages: 1 -->
<svg width="206pt" height="151pt"
 viewBox="0.00 0.00 206.02 151.43" xmlns="http://www.w3.org/2000/svg" xmlns:xlink="http://www.w3.org/1999/xlink">
<g id="graph0" class="graph" transform="scale(1 1) rotate(0) translate(4 147.43)">
<title>G</title>
<polygon fill="white" stroke="transparent" points="-4,4 -4,-147.43 202.02,-147.43 202.02,4 -4,4"/>
<!-- Available personnel -->
<g id="node1" class="node">
<title>Available personnel</title>
<text text-anchor="middle" x="44.5" y="-91.07" font-family="Times,serif" font-size="11.00">Available personnel</text>
</g>
<!-- Workforce gap -->
<g id="node2" class="node">
<title>Workforce gap</title>
<text text-anchor="middle" x="111.53" y="-62.62" font-family="Times,serif" font-size="11.00">Workforce gap</text>
</g>
<!-- Available personnel&#45;&gt;Workforce gap -->
<g id="edge1" class="edge">
<title>Available personnel&#45;&gt;Workforce gap</title>
<path fill="none" stroke="black" d="M50.59,-87.87C60.3,-78.36 66.29,-73 72.99,-69.93"/>
<polygon fill="black" stroke="black" points="73.71,-71.53 77.79,-68.14 72.49,-68.25 73.71,-71.53"/>
<text text-anchor="middle" x="75.79" y="-71.34" font-family="arial" font-size="11.00">&#45;</text>
</g>
<!-- Hiring rate -->
<g id="node4" class="node">
<title>Hiring rate</title>
<text text-anchor="middle" x="101.58" y="-134.63" font-family="Times,serif" font-size="11.00">Hiring rate</text>
</g>
<!-- Workforce gap&#45;&gt;Hiring rate -->
<g id="edge3" class="edge">
<title>Workforce gap&#45;&gt;Hiring rate</title>
<path fill="none" stroke="black" d="M113.09,-71.68C119.97,-99.47 119.98,-104.3 107.48,-126.95"/>
<polygon fill="black" stroke="black" points="105.9,-126.18 104.99,-131.39 108.96,-127.88 105.9,-126.18"/>
<text text-anchor="middle" x="101.49" y="-122.59" font-family="arial" font-size="11.00">+</text>
</g>
<!-- Required personnel -->
<g id="node3" class="node">
<title>Required personnel</title>
<text text-anchor="middle" x="154.52" y="-3.2" font-family="Times,serif" font-size="11.00">Required personnel</text>
</g>
<!-- Required personnel&#45;&gt;Workforce gap -->
<g id="edge2" class="edge">
<title>Required personnel&#45;&gt;Workforce gap</title>
<path fill="none" stroke="black" d="M150.91,-12.01C143.54,-24.15 140.15,-28.78 119.63,-55.06"/>
<polygon fill="black" stroke="black" points="118.17,-54.08 116.47,-59.09 120.93,-56.23 118.17,-54.08"/>
<text text-anchor="middle" x="112.97" y="-50.29" font-family="arial" font-size="11.00">+</text>
</g>
<!-- Hiring rate&#45;&gt;Available personnel -->
<g id="edge4" class="edge">
<title>Hiring rate&#45;&gt;Available personnel</title>
<path fill="none" stroke="black" d="M81.05,-131.38C66.05,-126.25 61.2,-121.26 50.92,-104.54"/>
<polygon fill="black" stroke="black" points="52.28,-103.4 48.19,-100.03 49.28,-105.21 52.28,-103.4"/>
<text text-anchor="middle" x="44.69" y="-103.23" font-family="arial" font-size="11.00">+</text>
</g>
</g>
</svg>
