<?xml version="1.0" encoding="UTF-8" standalone="no"?>
<!DOCTYPE svg PUBLIC "-//W3C//DTD SVG 1.1//EN"
 "http://www.w3.org/Graphics/SVG/1.1/DTD/svg11.dtd">
<!-- Generated by graphviz version 2.40.1 (20161225.0304)
 -->
<!-- Title: G Pages: 1 -->
<svg width="287pt" height="464pt"
 viewBox="0.00 0.00 287.00 464.10" xmlns="http://www.w3.org/2000/svg" xmlns:xlink="http://www.w3.org/1999/xlink">
<g id="graph0" class="graph" transform="scale(1 1) rotate(0) translate(4 460.1)">
<title>G</title>
<polygon fill="#ffffff" stroke="transparent" points="-4,4 -4,-460.1 283,-460.1 283,4 -4,4"/>
<!-- Battle Planner -->
<g id="node1" class="node">
<title>Battle Planner</title>
<image xlink:href="actor.svg" width="50px" height="77px" preserveAspectRatio="xMinYMin meet" x="18" y="-456.1"/>
<text text-anchor="middle" x="43" y="-382.3" font-family="arial" font-size="11.00" fill="#000000">Battle Planner</text>
</g>
<!-- Battle Planner 14 -->
<g id="node29" class="node">
<title>Battle Planner 14</title>
<ellipse fill="transparent" stroke="transparent" cx="43" cy="0" rx="0" ry="0"/>
</g>
<!-- Battle Planner&#45;&gt;Battle Planner 14 -->
<g id="edge15" class="edge">
<title>Battle Planner&#45;&gt;Battle Planner 14</title>
<path fill="none" stroke="#000000" stroke-dasharray="5,2" d="M43,-379.0617C43,-276.4889 43,-4.297 43,-.0503"/>
</g>
<!-- main -->
<g id="node2" class="node">
<title>main</title>
<polygon fill="none" stroke="#000000" points="279,-435.6 239,-435.6 239,-399.6 279,-399.6 279,-435.6"/>
<text text-anchor="middle" x="259" y="-414.8" font-family="arial" font-size="11.00" fill="#000000">main</text>
</g>
<!-- main 14 -->
<g id="node30" class="node">
<title>main 14</title>
<ellipse fill="transparent" stroke="transparent" cx="259" cy="0" rx="0" ry="0"/>
</g>
<!-- main&#45;&gt;main 14 -->
<g id="edge16" class="edge">
<title>main&#45;&gt;main 14</title>
<path fill="none" stroke="#000000" stroke-dasharray="5,2" d="M259,-399.3877C259,-319.6397 259,-4.97 259,-.0581"/>
</g>
<!-- Battle Planner 1 -->
<g id="node3" class="node">
<title>Battle Planner 1</title>
<ellipse fill="transparent" stroke="transparent" cx="43" cy="-374.4" rx="0" ry="0"/>
</g>
<!-- main 1 -->
<g id="node4" class="node">
<title>main 1</title>
<ellipse fill="transparent" stroke="transparent" cx="259" cy="-374.4" rx="0" ry="0"/>
</g>
<!-- Battle Planner 1&#45;&gt;main 1 -->
<g id="edge1" class="edge">
<title>Battle Planner 1&#45;&gt;main 1</title>
<path fill="none" stroke="#000000" d="M43.1566,-374.4C49.0669,-374.4 220.5404,-374.4 253.5368,-374.4"/>
<polygon fill="#000000" stroke="#000000" points="253.8483,-376.1501 258.8483,-374.4 253.8482,-372.6501 253.8483,-376.1501"/>
<text text-anchor="middle" x="151.2592" y="-381.0128" font-family="arial" font-size="11.00" fill="#000000">run()</text>
</g>
<!-- Battle Planner 2 -->
<g id="node5" class="node">
<title>Battle Planner 2</title>
<ellipse fill="transparent" stroke="transparent" cx="43" cy="-345.6" rx="0" ry="0"/>
</g>
<!-- main 2 -->
<g id="node6" class="node">
<title>main 2</title>
<ellipse fill="transparent" stroke="transparent" cx="259" cy="-345.6" rx="0" ry="0"/>
</g>
<!-- main 2&#45;&gt;Battle Planner 2 -->
<g id="edge2" class="edge">
<title>main 2&#45;&gt;Battle Planner 2</title>
<path fill="none" stroke="#000000" d="M258.8434,-345.6C252.9331,-345.6 81.4596,-345.6 48.4632,-345.6"/>
<polygon fill="#000000" stroke="#000000" points="48.1518,-343.8501 43.1517,-345.6 48.1517,-347.3501 48.1518,-343.8501"/>
<text text-anchor="middle" x="150.7408" y="-352.2128" font-family="arial" font-size="11.00" fill="#000000">request for side 1 name</text>
</g>
<!-- Battle Planner 3 -->
<g id="node7" class="node">
<title>Battle Planner 3</title>
<ellipse fill="transparent" stroke="transparent" cx="43" cy="-316.8" rx="0" ry="0"/>
</g>
<!-- main 3 -->
<g id="node8" class="node">
<title>main 3</title>
<ellipse fill="transparent" stroke="transparent" cx="259" cy="-316.8" rx="0" ry="0"/>
</g>
<!-- Battle Planner 3&#45;&gt;main 3 -->
<g id="edge3" class="edge">
<title>Battle Planner 3&#45;&gt;main 3</title>
<path fill="none" stroke="#000000" d="M43.1566,-316.8C49.0669,-316.8 220.5404,-316.8 253.5368,-316.8"/>
<polygon fill="#000000" stroke="#000000" points="253.8483,-318.5501 258.8483,-316.8 253.8482,-315.0501 253.8483,-318.5501"/>
<text text-anchor="middle" x="151.2592" y="-323.4128" font-family="arial" font-size="11.00" fill="#000000">side 1 name</text>
</g>
<!-- Battle Planner 4 -->
<g id="node9" class="node">
<title>Battle Planner 4</title>
<ellipse fill="transparent" stroke="transparent" cx="43" cy="-288" rx="0" ry="0"/>
</g>
<!-- main 4 -->
<g id="node10" class="node">
<title>main 4</title>
<ellipse fill="transparent" stroke="transparent" cx="259" cy="-288" rx="0" ry="0"/>
</g>
<!-- main 4&#45;&gt;Battle Planner 4 -->
<g id="edge4" class="edge">
<title>main 4&#45;&gt;Battle Planner 4</title>
<path fill="none" stroke="#000000" d="M258.8434,-288C252.9331,-288 81.4596,-288 48.4632,-288"/>
<polygon fill="#000000" stroke="#000000" points="48.1518,-286.2501 43.1517,-288 48.1517,-289.7501 48.1518,-286.2501"/>
<text text-anchor="middle" x="150.7408" y="-294.6128" font-family="arial" font-size="11.00" fill="#000000">request for side 2 name</text>
</g>
<!-- Battle Planner 5 -->
<g id="node11" class="node">
<title>Battle Planner 5</title>
<ellipse fill="transparent" stroke="transparent" cx="43" cy="-259.2" rx="0" ry="0"/>
</g>
<!-- main 5 -->
<g id="node12" class="node">
<title>main 5</title>
<ellipse fill="transparent" stroke="transparent" cx="259" cy="-259.2" rx="0" ry="0"/>
</g>
<!-- Battle Planner 5&#45;&gt;main 5 -->
<g id="edge5" class="edge">
<title>Battle Planner 5&#45;&gt;main 5</title>
<path fill="none" stroke="#000000" d="M43.1566,-259.2C49.0669,-259.2 220.5404,-259.2 253.5368,-259.2"/>
<polygon fill="#000000" stroke="#000000" points="253.8483,-260.9501 258.8483,-259.2 253.8482,-257.4501 253.8483,-260.9501"/>
<text text-anchor="middle" x="151.2592" y="-265.8128" font-family="arial" font-size="11.00" fill="#000000">side 2 name</text>
</g>
<!-- Battle Planner 6 -->
<g id="node13" class="node">
<title>Battle Planner 6</title>
<ellipse fill="transparent" stroke="transparent" cx="43" cy="-230.4" rx="0" ry="0"/>
</g>
<!-- main 6 -->
<g id="node14" class="node">
<title>main 6</title>
<ellipse fill="transparent" stroke="transparent" cx="259" cy="-230.4" rx="0" ry="0"/>
</g>
<!-- main 6&#45;&gt;Battle Planner 6 -->
<g id="edge6" class="edge">
<title>main 6&#45;&gt;Battle Planner 6</title>
<path fill="none" stroke="#000000" d="M258.8434,-230.4C252.9331,-230.4 81.4596,-230.4 48.4632,-230.4"/>
<polygon fill="#000000" stroke="#000000" points="48.1518,-228.6501 43.1517,-230.4 48.1517,-232.1501 48.1518,-228.6501"/>
<text text-anchor="middle" x="150.7408" y="-237.0128" font-family="arial" font-size="11.00" fill="#000000">request for side 1 starting level</text>
</g>
<!-- Battle Planner 7 -->
<g id="node15" class="node">
<title>Battle Planner 7</title>
<ellipse fill="transparent" stroke="transparent" cx="43" cy="-201.6" rx="0" ry="0"/>
</g>
<!-- main 7 -->
<g id="node16" class="node">
<title>main 7</title>
<ellipse fill="transparent" stroke="transparent" cx="259" cy="-201.6" rx="0" ry="0"/>
</g>
<!-- Battle Planner 7&#45;&gt;main 7 -->
<g id="edge7" class="edge">
<title>Battle Planner 7&#45;&gt;main 7</title>
<path fill="none" stroke="#000000" d="M43.1566,-201.6C49.0669,-201.6 220.5404,-201.6 253.5368,-201.6"/>
<polygon fill="#000000" stroke="#000000" points="253.8483,-203.3501 258.8483,-201.6 253.8482,-199.8501 253.8483,-203.3501"/>
<text text-anchor="middle" x="151.2592" y="-208.2128" font-family="arial" font-size="11.00" fill="#000000">side 1 starting level</text>
</g>
<!-- Battle Planner 8 -->
<g id="node17" class="node">
<title>Battle Planner 8</title>
<ellipse fill="transparent" stroke="transparent" cx="43" cy="-172.8" rx="0" ry="0"/>
</g>
<!-- main 8 -->
<g id="node18" class="node">
<title>main 8</title>
<ellipse fill="transparent" stroke="transparent" cx="259" cy="-172.8" rx="0" ry="0"/>
</g>
<!-- main 8&#45;&gt;Battle Planner 8 -->
<g id="edge8" class="edge">
<title>main 8&#45;&gt;Battle Planner 8</title>
<path fill="none" stroke="#000000" d="M258.8434,-172.8C252.9331,-172.8 81.4596,-172.8 48.4632,-172.8"/>
<polygon fill="#000000" stroke="#000000" points="48.1518,-171.0501 43.1517,-172.8 48.1517,-174.5501 48.1518,-171.0501"/>
<text text-anchor="middle" x="150.7408" y="-179.4128" font-family="arial" font-size="11.00" fill="#000000">request for side 1 lethality coefficient</text>
</g>
<!-- Battle Planner 9 -->
<g id="node19" class="node">
<title>Battle Planner 9</title>
<ellipse fill="transparent" stroke="transparent" cx="43" cy="-144" rx="0" ry="0"/>
</g>
<!-- main 9 -->
<g id="node20" class="node">
<title>main 9</title>
<ellipse fill="transparent" stroke="transparent" cx="259" cy="-144" rx="0" ry="0"/>
</g>
<!-- Battle Planner 9&#45;&gt;main 9 -->
<g id="edge9" class="edge">
<title>Battle Planner 9&#45;&gt;main 9</title>
<path fill="none" stroke="#000000" d="M43.1566,-144C49.0669,-144 220.5404,-144 253.5368,-144"/>
<polygon fill="#000000" stroke="#000000" points="253.8483,-145.7501 258.8483,-144 253.8482,-142.2501 253.8483,-145.7501"/>
<text text-anchor="middle" x="151.2592" y="-150.6128" font-family="arial" font-size="11.00" fill="#000000">side 1 lethality coefficient</text>
</g>
<!-- Battle Planner 10 -->
<g id="node21" class="node">
<title>Battle Planner 10</title>
<ellipse fill="transparent" stroke="transparent" cx="43" cy="-115.2" rx="0" ry="0"/>
</g>
<!-- main 10 -->
<g id="node22" class="node">
<title>main 10</title>
<ellipse fill="transparent" stroke="transparent" cx="259" cy="-115.2" rx="0" ry="0"/>
</g>
<!-- main 10&#45;&gt;Battle Planner 10 -->
<g id="edge10" class="edge">
<title>main 10&#45;&gt;Battle Planner 10</title>
<path fill="none" stroke="#000000" d="M258.8434,-115.2C252.9331,-115.2 81.4596,-115.2 48.4632,-115.2"/>
<polygon fill="#000000" stroke="#000000" points="48.1518,-113.4501 43.1517,-115.2 48.1517,-116.9501 48.1518,-113.4501"/>
<text text-anchor="middle" x="150.7408" y="-121.8128" font-family="arial" font-size="11.00" fill="#000000">request for side 2 starting level</text>
</g>
<!-- Battle Planner 11 -->
<g id="node23" class="node">
<title>Battle Planner 11</title>
<ellipse fill="transparent" stroke="transparent" cx="43" cy="-86.4" rx="0" ry="0"/>
</g>
<!-- main 11 -->
<g id="node24" class="node">
<title>main 11</title>
<ellipse fill="transparent" stroke="transparent" cx="259" cy="-86.4" rx="0" ry="0"/>
</g>
<!-- Battle Planner 11&#45;&gt;main 11 -->
<g id="edge11" class="edge">
<title>Battle Planner 11&#45;&gt;main 11</title>
<path fill="none" stroke="#000000" d="M43.1566,-86.4C49.0669,-86.4 220.5404,-86.4 253.5368,-86.4"/>
<polygon fill="#000000" stroke="#000000" points="253.8483,-88.1501 258.8483,-86.4 253.8482,-84.6501 253.8483,-88.1501"/>
<text text-anchor="middle" x="151.2592" y="-93.0128" font-family="arial" font-size="11.00" fill="#000000">side 2 starting level</text>
</g>
<!-- Battle Planner 12 -->
<g id="node25" class="node">
<title>Battle Planner 12</title>
<ellipse fill="transparent" stroke="transparent" cx="43" cy="-57.6" rx="0" ry="0"/>
</g>
<!-- main 12 -->
<g id="node26" class="node">
<title>main 12</title>
<ellipse fill="transparent" stroke="transparent" cx="259" cy="-57.6" rx="0" ry="0"/>
</g>
<!-- main 12&#45;&gt;Battle Planner 12 -->
<g id="edge12" class="edge">
<title>main 12&#45;&gt;Battle Planner 12</title>
<path fill="none" stroke="#000000" d="M258.8434,-57.6C252.9331,-57.6 81.4596,-57.6 48.4632,-57.6"/>
<polygon fill="#000000" stroke="#000000" points="48.1518,-55.8501 43.1517,-57.6 48.1517,-59.3501 48.1518,-55.8501"/>
<text text-anchor="middle" x="150.7408" y="-64.2128" font-family="arial" font-size="11.00" fill="#000000">request for side 2 lethality coefficient</text>
</g>
<!-- Battle Planner 13 -->
<g id="node27" class="node">
<title>Battle Planner 13</title>
<ellipse fill="transparent" stroke="transparent" cx="43" cy="-28.8" rx="0" ry="0"/>
</g>
<!-- main 13 -->
<g id="node28" class="node">
<title>main 13</title>
<ellipse fill="transparent" stroke="transparent" cx="259" cy="-28.8" rx="0" ry="0"/>
</g>
<!-- Battle Planner 13&#45;&gt;main 13 -->
<g id="edge13" class="edge">
<title>Battle Planner 13&#45;&gt;main 13</title>
<path fill="none" stroke="#000000" d="M43.1566,-28.8C49.0669,-28.8 220.5404,-28.8 253.5368,-28.8"/>
<polygon fill="#000000" stroke="#000000" points="253.8483,-30.5501 258.8483,-28.8 253.8482,-27.0501 253.8483,-30.5501"/>
<text text-anchor="middle" x="151.2592" y="-35.4128" font-family="arial" font-size="11.00" fill="#000000">side 2 lethality coefficient</text>
</g>
<!-- main 14&#45;&gt;Battle Planner 14 -->
<g id="edge14" class="edge">
<title>main 14&#45;&gt;Battle Planner 14</title>
<path fill="none" stroke="#000000" d="M258.8434,0C252.9331,0 81.4596,0 48.4632,0"/>
<polygon fill="#000000" stroke="#000000" points="48.1518,1.7499 43.1517,0 48.1517,-1.7501 48.1518,1.7499"/>
<text text-anchor="middle" x="150.7408" y="-6.6128" font-family="arial" font-size="11.00" fill="#000000">time history of troops and victor</text>
</g>
</g>
</svg>
