<?xml version="1.0" encoding="UTF-8" standalone="no"?>
<!DOCTYPE svg PUBLIC "-//W3C//DTD SVG 1.1//EN"
 "http://www.w3.org/Graphics/SVG/1.1/DTD/svg11.dtd">
<!-- Generated by graphviz version 2.50.0 (0)
 -->
<!-- Title: G Pages: 1 -->
<svg width="197pt" height="203pt"
 viewBox="0.00 0.00 197.22 202.67" xmlns="http://www.w3.org/2000/svg" xmlns:xlink="http://www.w3.org/1999/xlink">
<g id="graph0" class="graph" transform="scale(1 1) rotate(0) translate(4 198.67)">
<title>G</title>
<polygon fill="white" stroke="transparent" points="-4,4 -4,-198.67 193.22,-198.67 193.22,4 -4,4"/>
<!-- User -->
<g id="node1" class="node">
<title>User</title>
<text text-anchor="start" x="0" y="-76.7" font-family="arial" font-size="30.00">🧍</text>
<text text-anchor="start" x="3.5" y="-61.9" font-family="arial" font-size="11.00">User</text>
</g>
<!-- Python Interpreter
with PyML -->
<g id="node2" class="node">
<title>Python Interpreter
with PyML</title>
<polygon fill="none" stroke="black" points="158.93,-109.64 54.93,-109.64 54.93,-73.64 158.93,-73.64 158.93,-109.64"/>
<text text-anchor="middle" x="106.93" y="-94.84" font-family="arial" font-size="11.00">Python Interpreter</text>
<text text-anchor="middle" x="106.93" y="-82.84" font-family="arial" font-size="11.00">with PyML</text>
</g>
<!-- Python Interpreter
with PyML&#45;&#45;User -->
<g id="edge1" class="edge">
<title>Python Interpreter
with PyML&#45;&#45;User</title>
<path fill="none" stroke="black" d="M54.81,-85.12C46.14,-84.03 37.79,-82.99 31.04,-82.14"/>
</g>
<!-- OS -->
<g id="node3" class="node">
<title>OS</title>
<polygon fill="none" stroke="black" points="189.22,-36 135.22,-36 135.22,0 189.22,0 189.22,-36"/>
<text text-anchor="middle" x="162.22" y="-15.2" font-family="arial" font-size="11.00">OS</text>
</g>
<!-- Python Interpreter
with PyML&#45;&#45;OS -->
<g id="edge2" class="edge">
<title>Python Interpreter
with PyML&#45;&#45;OS</title>
<path fill="none" stroke="black" d="M120.6,-73.44C129.1,-62.11 140,-47.59 148.51,-36.25"/>
</g>
<!-- Graphviz -->
<g id="node4" class="node">
<title>Graphviz</title>
<polygon fill="none" stroke="black" points="171.79,-194.67 112.79,-194.67 112.79,-158.67 171.79,-158.67 171.79,-194.67"/>
<text text-anchor="middle" x="142.29" y="-173.87" font-family="arial" font-size="11.00">Graphviz</text>
</g>
<!-- Python Interpreter
with PyML&#45;&#45;Graphviz -->
<g id="edge3" class="edge">
<title>Python Interpreter
with PyML&#45;&#45;Graphviz</title>
<path fill="none" stroke="black" d="M114.43,-109.67C120.43,-124.1 128.81,-144.24 134.8,-158.67"/>
</g>
</g>
</svg>
