<?xml version="1.0" encoding="UTF-8" standalone="no"?><!DOCTYPE svg PUBLIC "-//W3C//DTD SVG 1.1//EN" "http://www.w3.org/Graphics/SVG/1.1/DTD/svg11.dtd"><!-- Generated by graphviz version 2.40.1 (20161225.0304)
 --><!-- Title: D Pages: 1 --><svg xmlns="http://www.w3.org/2000/svg" xmlns:xlink="http://www.w3.org/1999/xlink" width="206pt" height="116pt" viewBox="0.00 0.00 206.00 116.00">
<g id="graph0" class="graph" transform="scale(1 1) rotate(0) translate(4 112)">
<title>D</title>
<polygon fill="#ffffff" stroke="transparent" points="-4,4 -4,-112 202,-112 202,4 -4,4"/>
<!-- a -->
<g id="node1" class="node">
<title>a</title>
<polygon fill="none" stroke="#0000ff" points="126,-108 72,-108 72,-72 126,-72 126,-108"/>
</g>
<!-- b -->
<g id="node2" class="node">
<title>b</title>
<polygon fill="none" stroke="#0000ff" points="54,-36 0,-36 0,0 54,0 54,-36"/>
</g>
<!-- a&#45;&gt;b -->
<g id="edge1" class="edge">
<title>a-&gt;b</title>
<path fill="none" stroke="#0000ff" d="M71.7799,-90C51.3907,-90 27,-90 27,-90 27,-90 27,-46.1686 27,-46.1686"/>
<polygon fill="#0000ff" stroke="#0000ff" points="30.5001,-46.1686 27,-36.1686 23.5001,-46.1687 30.5001,-46.1686"/>
</g>
<!-- c -->
<g id="node3" class="node">
<title>c</title>
<polygon fill="none" stroke="#0000ff" points="126,-36 72,-36 72,0 126,0 126,-36"/>
</g>
<!-- a&#45;&gt;c -->
<g id="edge2" class="edge">
<title>a-&gt;c</title>
<path fill="none" stroke="#0000ff" d="M99,-71.8314C99,-71.8314 99,-46.4133 99,-46.4133"/>
<polygon fill="#0000ff" stroke="#0000ff" points="102.5001,-46.4132 99,-36.4133 95.5001,-46.4133 102.5001,-46.4132"/>
</g>
<!-- d -->
<g id="node4" class="node">
<title>d</title>
<polygon fill="none" stroke="#0000ff" points="198,-36 144,-36 144,0 198,0 198,-36"/>
</g>
<!-- a&#45;&gt;d -->
<g id="edge3" class="edge">
<title>a-&gt;d</title>
<path fill="none" stroke="#0000ff" d="M126.2201,-90C146.6093,-90 171,-90 171,-90 171,-90 171,-46.1686 171,-46.1686"/>
<polygon fill="#0000ff" stroke="#0000ff" points="174.5001,-46.1686 171,-36.1686 167.5001,-46.1687 174.5001,-46.1686"/>
</g>
</g>
</svg>