<?xml version="1.0" encoding="UTF-8" standalone="no"?>
<!DOCTYPE svg PUBLIC "-//W3C//DTD SVG 1.1//EN"
 "http://www.w3.org/Graphics/SVG/1.1/DTD/svg11.dtd">
<!-- Generated by graphviz version 2.40.1 (20161225.0304)
 -->
<!-- Title: G Pages: 1 -->
<svg width="242pt" height="98pt"
 viewBox="0.00 0.00 242.00 98.00" xmlns="http://www.w3.org/2000/svg" xmlns:xlink="http://www.w3.org/1999/xlink">
<g id="graph0" class="graph" transform="scale(1 1) rotate(0) translate(4 94)">
<title>G</title>
<polygon fill="#ffffff" stroke="transparent" points="-4,4 -4,-94 238,-94 238,4 -4,4"/>
<!-- A -->
<g id="node1" class="node">
<title>A</title>
<polygon fill="none" stroke="#000000" points="54,-36 0,-36 0,0 54,0 54,-36"/>
<text text-anchor="middle" x="27" y="-15.2" font-family="Times,serif" font-size="11.00" fill="#000000">A, 3</text>
</g>
<!-- C -->
<g id="node3" class="node">
<title>C</title>
<polygon fill="none" stroke="#000000" points="144,-90 90,-90 90,-54 144,-54 144,-90"/>
<text text-anchor="middle" x="117" y="-69.2" font-family="Times,serif" font-size="11.00" fill="#000000">C, 2</text>
</g>
<!-- A&#45;&gt;C -->
<g id="edge1" class="edge">
<title>A&#45;&gt;C</title>
<path fill="none" stroke="#000000" d="M54.003,-34.2018C63.8795,-40.1277 75.1409,-46.8845 85.3843,-53.0306"/>
<polygon fill="#000000" stroke="#000000" points="84.5172,-54.5511 89.705,-55.623 86.3179,-51.5499 84.5172,-54.5511"/>
</g>
<!-- D -->
<g id="node4" class="node">
<title>D</title>
<polygon fill="none" stroke="#000000" points="144,-36 90,-36 90,0 144,0 144,-36"/>
<text text-anchor="middle" x="117" y="-15.2" font-family="Times,serif" font-size="11.00" fill="#000000">D, 3</text>
</g>
<!-- A&#45;&gt;D -->
<g id="edge2" class="edge">
<title>A&#45;&gt;D</title>
<path fill="none" stroke="#000000" d="M54.003,-18C63.615,-18 74.5386,-18 84.559,-18"/>
<polygon fill="#000000" stroke="#000000" points="84.7051,-19.7501 89.705,-18 84.705,-16.2501 84.7051,-19.7501"/>
</g>
<!-- B -->
<g id="node2" class="node">
<title>B</title>
<polygon fill="none" stroke="#000000" points="54,-90 0,-90 0,-54 54,-54 54,-90"/>
<text text-anchor="middle" x="27" y="-69.2" font-family="Times,serif" font-size="11.00" fill="#000000">B, 5</text>
</g>
<!-- B&#45;&gt;C -->
<g id="edge4" class="edge">
<title>B&#45;&gt;C</title>
<path fill="none" stroke="#ff0000" d="M54.003,-72C63.615,-72 74.5386,-72 84.559,-72"/>
<polygon fill="#ff0000" stroke="#ff0000" points="84.7051,-73.7501 89.705,-72 84.705,-70.2501 84.7051,-73.7501"/>
</g>
<!-- E -->
<g id="node5" class="node">
<title>E</title>
<polygon fill="none" stroke="#000000" points="234,-63 180,-63 180,-27 234,-27 234,-63"/>
<text text-anchor="middle" x="207" y="-42.2" font-family="Times,serif" font-size="11.00" fill="#000000">E, 5</text>
</g>
<!-- C&#45;&gt;E -->
<g id="edge5" class="edge">
<title>C&#45;&gt;E</title>
<path fill="none" stroke="#ff0000" d="M144.003,-63.8991C153.7032,-60.9891 164.7391,-57.6783 174.8346,-54.6496"/>
<polygon fill="#ff0000" stroke="#ff0000" points="175.4188,-56.3015 179.705,-53.1885 174.413,-52.9491 175.4188,-56.3015"/>
</g>
<!-- D&#45;&gt;E -->
<g id="edge3" class="edge">
<title>D&#45;&gt;E</title>
<path fill="none" stroke="#000000" d="M144.003,-26.1009C153.7032,-29.0109 164.7391,-32.3217 174.8346,-35.3504"/>
<polygon fill="#000000" stroke="#000000" points="174.413,-37.0509 179.705,-36.8115 175.4188,-33.6985 174.413,-37.0509"/>
</g>
</g>
</svg>
