<?xml version="1.0" encoding="UTF-8" standalone="no"?>
<!DOCTYPE svg PUBLIC "-//W3C//DTD SVG 1.1//EN"
 "http://www.w3.org/Graphics/SVG/1.1/DTD/svg11.dtd">
<!-- Generated by graphviz version 2.38.0 (20140413.2041)
 -->
<!-- Title: G Pages: 1 -->
<svg width="457pt" height="464pt"
 viewBox="0.00 0.00 457.00 463.50" xmlns="http://www.w3.org/2000/svg" xmlns:xlink="http://www.w3.org/1999/xlink">
<g id="graph0" class="graph" transform="scale(1 1) rotate(0) translate(4 459.5)">
<title>G</title>
<polygon fill="white" stroke="none" points="-4,4 -4,-459.5 453,-459.5 453,4 -4,4"/>
<!-- PyML -->
<g id="node1" class="node"><title>PyML</title>
<path fill="none" stroke="black" d="M214,-271C214,-271 192,-271 192,-271 186,-271 180,-265 180,-259 180,-259 180,-247 180,-247 180,-241 186,-235 192,-235 192,-235 214,-235 214,-235 220,-235 226,-241 226,-247 226,-247 226,-259 226,-259 226,-265 220,-271 214,-271"/>
<text text-anchor="start" x="188" y="-251.2" font-family="arial" font-weight="bold" font-size="11.00">PyML</text>
</g>
<!-- Model \lData\l -->
<g id="node3" class="node"><title>Model \lData\l</title>
<polygon fill="none" stroke="black" points="144,-271 96,-271 96,-235 144,-235 144,-271"/>
<text text-anchor="start" x="104" y="-256.2" font-family="arial" font-size="11.00">Model </text>
<text text-anchor="start" x="104" y="-244.2" font-family="arial" font-size="11.00">Data</text>
</g>
<!-- PyML&#45;&gt;Model \lData\l -->
<g id="edge5" class="edge"><title>PyML&#45;&gt;Model \lData\l</title>
<path fill="none" stroke="black" d="M179.737,-257.067C170.399,-257.542 159.424,-257.626 149.505,-257.32"/>
<polygon fill="black" stroke="black" points="149.492,-255.568 144.429,-257.124 149.357,-259.065 149.492,-255.568"/>
</g>
<!-- Documents -->
<g id="node6" class="node"><title>Documents</title>
<polygon fill="none" stroke="black" points="345,-327 271,-327 271,-291 345,-291 345,-327"/>
<text text-anchor="middle" x="308" y="-306.2" font-family="arial" font-size="11.00">Documents</text>
</g>
<!-- PyML&#45;&gt;Documents -->
<g id="edge8" class="edge"><title>PyML&#45;&gt;Documents</title>
<path fill="none" stroke="black" d="M226.269,-265.383C237.042,-271.348 250.173,-278.584 262,-285 264.126,-286.153 266.31,-287.333 268.516,-288.522"/>
<polygon fill="black" stroke="black" points="267.831,-290.141 273.064,-290.967 269.489,-287.058 267.831,-290.141"/>
</g>
<!-- Code -->
<g id="node7" class="node"><title>Code</title>
<polygon fill="none" stroke="black" points="329.5,-93 286.5,-93 286.5,-57 329.5,-57 329.5,-93"/>
<text text-anchor="middle" x="308" y="-72.2" font-family="arial" font-size="11.00">Code</text>
</g>
<!-- PyML&#45;&gt;Code -->
<g id="edge6" class="edge"><title>PyML&#45;&gt;Code</title>
<path fill="none" stroke="black" d="M208.03,-234.58C215.082,-205.541 231.857,-148.379 262,-109 267.422,-101.917 274.683,-95.57 281.788,-90.3317"/>
<polygon fill="black" stroke="black" points="283.11,-91.5388 286.173,-87.2167 281.084,-88.6852 283.11,-91.5388"/>
</g>
<!-- Diagrams

Activity\lBlock \lClass \lContext \lLayer \lPackage\lParametric \lRequirements\lSequence &#160;\lState Machine\lUse Case \l -->
<g id="node10" class="node"><title>Diagrams

Activity\lBlock \lClass \lContext \lLayer \lPackage\lParametric \lRequirements\lSequence &#160;\lState Machine\lUse Case \l</title>
<polygon fill="none" stroke="black" points="351,-279.5 265,-279.5 265,-114.5 351,-114.5 351,-279.5"/>
<text text-anchor="middle" x="308" y="-266.7" font-family="arial" font-size="11.00">Diagrams</text>
<text text-anchor="start" x="273" y="-241.7" font-family="arial" font-size="11.00">Activity</text>
<text text-anchor="start" x="273" y="-229.7" font-family="arial" font-size="11.00">Block </text>
<text text-anchor="start" x="273" y="-217.7" font-family="arial" font-size="11.00">Class </text>
<text text-anchor="start" x="273" y="-205.7" font-family="arial" font-size="11.00">Context </text>
<text text-anchor="start" x="273" y="-193.7" font-family="arial" font-size="11.00">Layer </text>
<text text-anchor="start" x="273" y="-181.7" font-family="arial" font-size="11.00">Package</text>
<text text-anchor="start" x="273" y="-169.7" font-family="arial" font-size="11.00">Parametric </text>
<text text-anchor="start" x="273" y="-157.7" font-family="arial" font-size="11.00">Requirements</text>
<text text-anchor="start" x="273" y="-145.7" font-family="arial" font-size="11.00">Sequence &#160;</text>
<text text-anchor="start" x="273" y="-133.7" font-family="arial" font-size="11.00">State Machine</text>
<text text-anchor="start" x="273" y="-121.7" font-family="arial" font-size="11.00">Use Case </text>
</g>
<!-- PyML&#45;&gt;Diagrams

Activity\lBlock \lClass \lContext \lLayer \lPackage\lParametric \lRequirements\lSequence &#160;\lState Machine\lUse Case \l -->
<g id="edge7" class="edge"><title>PyML&#45;&gt;Diagrams

Activity\lBlock \lClass \lContext \lLayer \lPackage\lParametric \lRequirements\lSequence &#160;\lState Machine\lUse Case \l</title>
<path fill="none" stroke="black" d="M226.096,-240.987C236.204,-235.491 248.585,-228.76 260.592,-222.231"/>
<polygon fill="black" stroke="black" points="261.438,-223.764 264.995,-219.838 259.766,-220.689 261.438,-223.764"/>
</g>
<!-- Analyses and \lSimulations\l
GQM, DSM, \lPugh matrix, \lFTA, DOE, \ldiscrete&#45;event, \lcontinuous, \l...  -->
<g id="node11" class="node"><title>Analyses and \lSimulations\l
GQM, DSM, \lPugh matrix, \lFTA, DOE, \ldiscrete&#45;event, \lcontinuous, \l... </title>
<polygon fill="none" stroke="black" points="354,-455.5 262,-455.5 262,-338.5 354,-338.5 354,-455.5"/>
<text text-anchor="start" x="270" y="-442.7" font-family="arial" font-size="11.00">Analyses and </text>
<text text-anchor="start" x="270" y="-430.7" font-family="arial" font-size="11.00">Simulations</text>
<text text-anchor="start" x="270" y="-405.7" font-family="arial" font-size="11.00">GQM, DSM, </text>
<text text-anchor="start" x="270" y="-393.7" font-family="arial" font-size="11.00">Pugh matrix, </text>
<text text-anchor="start" x="270" y="-381.7" font-family="arial" font-size="11.00">FTA, DOE, </text>
<text text-anchor="start" x="270" y="-369.7" font-family="arial" font-size="11.00">discrete&#45;event, </text>
<text text-anchor="start" x="270" y="-357.7" font-family="arial" font-size="11.00">continuous, </text>
<text text-anchor="middle" x="308" y="-345.7" font-family="arial" font-size="11.00">... </text>
</g>
<!-- PyML&#45;&gt;Analyses and \lSimulations\l
GQM, DSM, \lPugh matrix, \lFTA, DOE, \ldiscrete&#45;event, \lcontinuous, \l...  -->
<g id="edge9" class="edge"><title>PyML&#45;&gt;Analyses and \lSimulations\l
GQM, DSM, \lPugh matrix, \lFTA, DOE, \ldiscrete&#45;event, \lcontinuous, \l... </title>
<path fill="none" stroke="black" d="M217.045,-271.238C228.46,-287.197 245.732,-311.343 262.099,-334.226"/>
<polygon fill="black" stroke="black" points="260.811,-335.433 265.143,-338.482 263.658,-333.397 260.811,-335.433"/>
</g>
<!-- csv -->
<g id="node2" class="node"><title>csv</title>
<polygon fill="none" stroke="black" points="44.5,-309.5 15.5,-309.5 15.5,-280.5 44.5,-280.5 44.5,-309.5"/>
<text text-anchor="middle" x="30" y="-292.2" font-family="arial" font-size="11.00">csv</text>
</g>
<!-- csv&#45;&gt;Model \lData\l -->
<g id="edge1" class="edge"><title>csv&#45;&gt;Model \lData\l</title>
<path fill="none" stroke="black" stroke-dasharray="5,2" d="M44.75,-288.438C58.2753,-281.982 79.192,-271.999 95.3824,-264.272"/>
<polygon fill="black" stroke="black" points="95.7639,-264.09 95.7639,-264.09 95.7639,-264.09 95.7639,-264.09"/>
</g>
<!-- Model \lData\l&#45;&gt;PyML -->
<g id="edge4" class="edge"><title>Model \lData\l&#45;&gt;PyML</title>
<path fill="none" stroke="black" d="M144.429,-249.563C153.898,-249.195 164.892,-249.151 174.719,-249.433"/>
<polygon fill="black" stroke="black" points="174.679,-251.183 179.737,-249.611 174.802,-247.685 174.679,-251.183"/>
</g>
<!-- Excel -->
<g id="node4" class="node"><title>Excel</title>
<polygon fill="none" stroke="black" points="46,-269 14,-269 14,-237 46,-237 46,-269"/>
<text text-anchor="middle" x="30" y="-250.2" font-family="arial" font-size="11.00">Excel</text>
</g>
<!-- Excel&#45;&gt;Model \lData\l -->
<g id="edge2" class="edge"><title>Excel&#45;&gt;Model \lData\l</title>
<path fill="none" stroke="black" stroke-dasharray="5,2" d="M46.3284,-253C59.9111,-253 79.9503,-253 95.5474,-253"/>
<polygon fill="black" stroke="black" points="95.915,-253 95.915,-253 95.915,-253 95.915,-253"/>
</g>
<!-- XML / XMI \l(Cameo, \lRhapsody, \lothers) -->
<g id="node5" class="node"><title>XML / XMI \l(Cameo, \lRhapsody, \lothers)</title>
<polygon fill="none" stroke="black" points="60,-226 0,-226 0,-166 60,-166 60,-226"/>
<text text-anchor="start" x="2" y="-211.2" font-family="arial" font-size="11.00">XML / XMI </text>
<text text-anchor="start" x="2" y="-199.2" font-family="arial" font-size="11.00">(Cameo, </text>
<text text-anchor="start" x="2" y="-187.2" font-family="arial" font-size="11.00">Rhapsody, </text>
<text text-anchor="middle" x="30" y="-175.2" font-family="arial" font-size="11.00">others)</text>
</g>
<!-- XML / XMI \l(Cameo, \lRhapsody, \lothers)&#45;&gt;Model \lData\l -->
<g id="edge3" class="edge"><title>XML / XMI \l(Cameo, \lRhapsody, \lothers)&#45;&gt;Model \lData\l</title>
<path fill="none" stroke="black" stroke-dasharray="5,2" d="M60.3027,-214.98C71.8118,-222.435 84.8365,-230.871 95.6878,-237.9"/>
<polygon fill="black" stroke="black" points="95.9437,-238.066 95.9437,-238.066 95.9437,-238.066 95.9437,-238.066"/>
</g>
<!-- Documents&#45;&gt;Diagrams

Activity\lBlock \lClass \lContext \lLayer \lPackage\lParametric \lRequirements\lSequence &#160;\lState Machine\lUse Case \l -->
<!-- pdf -->
<g id="node12" class="node"><title>pdf</title>
<polygon fill="none" stroke="black" points="434,-323.5 405,-323.5 405,-294.5 434,-294.5 434,-323.5"/>
<text text-anchor="middle" x="419.5" y="-306.2" font-family="arial" font-size="11.00">pdf</text>
</g>
<!-- Documents&#45;&gt;pdf -->
<g id="edge18" class="edge"><title>Documents&#45;&gt;pdf</title>
<path fill="none" stroke="black" stroke-dasharray="5,2" d="M345.158,-309C365.431,-309 389.563,-309 404.458,-309"/>
<polygon fill="black" stroke="black" points="404.808,-309 404.808,-309 404.808,-309 404.808,-309"/>
</g>
<!-- Word -->
<g id="node18" class="node"><title>Word</title>
<polygon fill="none" stroke="black" points="435.5,-407 403.5,-407 403.5,-375 435.5,-375 435.5,-407"/>
<text text-anchor="middle" x="419.5" y="-388.2" font-family="arial" font-size="11.00">Word</text>
</g>
<!-- Documents&#45;&gt;Word -->
<g id="edge19" class="edge"><title>Documents&#45;&gt;Word</title>
<path fill="none" stroke="black" stroke-dasharray="5,2" d="M345.439,-327.213C348.404,-329.06 351.297,-330.997 354,-333 372.181,-346.471 373.009,-354.056 390,-369 394.092,-372.599 398.703,-376.299 403.004,-379.613"/>
<polygon fill="black" stroke="black" points="403.419,-379.932 403.419,-379.932 403.419,-379.932 403.419,-379.932"/>
</g>
<!-- latex -->
<g id="node19" class="node"><title>latex</title>
<polygon fill="none" stroke="black" points="434,-363.5 405,-363.5 405,-334.5 434,-334.5 434,-363.5"/>
<text text-anchor="middle" x="419.5" y="-346.2" font-family="arial" font-size="11.00">latex</text>
</g>
<!-- Documents&#45;&gt;latex -->
<g id="edge20" class="edge"><title>Documents&#45;&gt;latex</title>
<path fill="none" stroke="black" stroke-dasharray="5,2" d="M345.158,-322.208C365.431,-329.614 389.563,-338.429 404.458,-343.871"/>
<polygon fill="black" stroke="black" points="404.808,-343.998 404.808,-343.998 404.808,-343.998 404.808,-343.998"/>
</g>
<!-- Python -->
<g id="node8" class="node"><title>Python</title>
<polygon fill="none" stroke="black" points="444.5,-36 394.5,-36 394.5,-32 390.5,-32 390.5,-28 394.5,-28 394.5,-8 390.5,-8 390.5,-4 394.5,-4 394.5,-0 444.5,-0 444.5,-36"/>
<polyline fill="none" stroke="black" points="394.5,-32 398.5,-32 398.5,-28 394.5,-28 "/>
<polyline fill="none" stroke="black" points="394.5,-8 398.5,-8 398.5,-4 394.5,-4 "/>
<text text-anchor="middle" x="419.5" y="-15.2" font-family="arial" font-size="11.00">Python</text>
</g>
<!-- Code&#45;&gt;Python -->
<g id="edge10" class="edge"><title>Code&#45;&gt;Python</title>
<path fill="none" stroke="black" stroke-dasharray="5,2" d="M329.596,-64.2787C347.791,-54.8076 374.364,-40.975 393.717,-30.9007"/>
<polygon fill="black" stroke="black" points="394.173,-30.6634 394.173,-30.6634 394.173,-30.6634 394.173,-30.6634"/>
</g>
<!-- MATLAB -->
<g id="node9" class="node"><title>MATLAB</title>
<polygon fill="none" stroke="black" points="449,-83 390,-83 390,-79 386,-79 386,-75 390,-75 390,-55 386,-55 386,-51 390,-51 390,-47 449,-47 449,-83"/>
<polyline fill="none" stroke="black" points="390,-79 394,-79 394,-75 390,-75 "/>
<polyline fill="none" stroke="black" points="390,-55 394,-55 394,-51 390,-51 "/>
<text text-anchor="middle" x="419.5" y="-62.2" font-family="arial" font-size="11.00">MATLAB</text>
</g>
<!-- Code&#45;&gt;MATLAB -->
<g id="edge11" class="edge"><title>Code&#45;&gt;MATLAB</title>
<path fill="none" stroke="black" stroke-dasharray="5,2" d="M329.596,-73.1191C346.438,-71.581 370.46,-69.3872 389.289,-67.6677"/>
<polygon fill="black" stroke="black" points="389.732,-67.6272 389.732,-67.6272 389.732,-67.6272 389.732,-67.6272"/>
</g>
<!-- Diagrams

Activity\lBlock \lClass \lContext \lLayer \lPackage\lParametric \lRequirements\lSequence &#160;\lState Machine\lUse Case \l&#45;&gt;Code -->
<!-- Diagrams

Activity\lBlock \lClass \lContext \lLayer \lPackage\lParametric \lRequirements\lSequence &#160;\lState Machine\lUse Case \l&#45;&gt;pdf -->
<g id="edge12" class="edge"><title>Diagrams

Activity\lBlock \lClass \lContext \lLayer \lPackage\lParametric \lRequirements\lSequence &#160;\lState Machine\lUse Case \l&#45;&gt;pdf</title>
<path fill="none" stroke="black" stroke-dasharray="5,2" d="M351.105,-249.154C363.069,-262.735 376.526,-276.932 390,-289 394.449,-292.985 399.71,-296.873 404.493,-300.146"/>
<polygon fill="black" stroke="black" points="404.954,-300.461 404.954,-300.461 404.954,-300.461 404.954,-300.461"/>
</g>
<!-- svg -->
<g id="node13" class="node"><title>svg</title>
<polygon fill="none" stroke="black" points="434,-283.5 405,-283.5 405,-254.5 434,-254.5 434,-283.5"/>
<text text-anchor="middle" x="419.5" y="-266.2" font-family="arial" font-size="11.00">svg</text>
</g>
<!-- Diagrams

Activity\lBlock \lClass \lContext \lLayer \lPackage\lParametric \lRequirements\lSequence &#160;\lState Machine\lUse Case \l&#45;&gt;svg -->
<g id="edge13" class="edge"><title>Diagrams

Activity\lBlock \lClass \lContext \lLayer \lPackage\lParametric \lRequirements\lSequence &#160;\lState Machine\lUse Case \l&#45;&gt;svg</title>
<path fill="none" stroke="black" stroke-dasharray="5,2" d="M351.022,-224.631C369.932,-237.065 390.986,-250.909 404.467,-259.773"/>
<polygon fill="black" stroke="black" points="404.784,-259.981 404.784,-259.981 404.784,-259.981 404.784,-259.981"/>
</g>
<!-- dot -->
<g id="node14" class="node"><title>dot</title>
<polygon fill="none" stroke="black" points="434,-243.5 405,-243.5 405,-214.5 434,-214.5 434,-243.5"/>
<text text-anchor="middle" x="419.5" y="-226.2" font-family="arial" font-size="11.00">dot</text>
</g>
<!-- Diagrams

Activity\lBlock \lClass \lContext \lLayer \lPackage\lParametric \lRequirements\lSequence &#160;\lState Machine\lUse Case \l&#45;&gt;dot -->
<g id="edge14" class="edge"><title>Diagrams

Activity\lBlock \lClass \lContext \lLayer \lPackage\lParametric \lRequirements\lSequence &#160;\lState Machine\lUse Case \l&#45;&gt;dot</title>
<path fill="none" stroke="black" stroke-dasharray="5,2" d="M351.022,-209.281C369.932,-214.807 390.986,-220.959 404.467,-224.899"/>
<polygon fill="black" stroke="black" points="404.784,-224.992 404.784,-224.992 404.784,-224.992 404.784,-224.992"/>
</g>
<!-- png -->
<g id="node15" class="node"><title>png</title>
<polygon fill="none" stroke="black" points="434,-203.5 405,-203.5 405,-174.5 434,-174.5 434,-203.5"/>
<text text-anchor="middle" x="419.5" y="-186.2" font-family="arial" font-size="11.00">png</text>
</g>
<!-- Diagrams

Activity\lBlock \lClass \lContext \lLayer \lPackage\lParametric \lRequirements\lSequence &#160;\lState Machine\lUse Case \l&#45;&gt;png -->
<g id="edge15" class="edge"><title>Diagrams

Activity\lBlock \lClass \lContext \lLayer \lPackage\lParametric \lRequirements\lSequence &#160;\lState Machine\lUse Case \l&#45;&gt;png</title>
<path fill="none" stroke="black" stroke-dasharray="5,2" d="M351.022,-193.93C369.932,-192.548 390.986,-191.01 404.467,-190.025"/>
<polygon fill="black" stroke="black" points="404.784,-190.002 404.784,-190.002 404.784,-190.002 404.784,-190.002"/>
</g>
<!-- jpeg -->
<g id="node16" class="node"><title>jpeg</title>
<polygon fill="none" stroke="black" points="434,-163.5 405,-163.5 405,-134.5 434,-134.5 434,-163.5"/>
<text text-anchor="middle" x="419.5" y="-146.2" font-family="arial" font-size="11.00">jpeg</text>
</g>
<!-- Diagrams

Activity\lBlock \lClass \lContext \lLayer \lPackage\lParametric \lRequirements\lSequence &#160;\lState Machine\lUse Case \l&#45;&gt;jpeg -->
<g id="edge16" class="edge"><title>Diagrams

Activity\lBlock \lClass \lContext \lLayer \lPackage\lParametric \lRequirements\lSequence &#160;\lState Machine\lUse Case \l&#45;&gt;jpeg</title>
<path fill="none" stroke="black" stroke-dasharray="5,2" d="M351.022,-178.579C369.932,-170.29 390.986,-161.061 404.467,-155.151"/>
<polygon fill="black" stroke="black" points="404.784,-155.012 404.784,-155.012 404.784,-155.012 404.784,-155.012"/>
</g>
<!-- gif -->
<g id="node17" class="node"><title>gif</title>
<polygon fill="none" stroke="black" points="434,-123.5 405,-123.5 405,-94.5 434,-94.5 434,-123.5"/>
<text text-anchor="middle" x="419.5" y="-106.2" font-family="arial" font-size="11.00">gif</text>
</g>
<!-- Diagrams

Activity\lBlock \lClass \lContext \lLayer \lPackage\lParametric \lRequirements\lSequence &#160;\lState Machine\lUse Case \l&#45;&gt;gif -->
<g id="edge17" class="edge"><title>Diagrams

Activity\lBlock \lClass \lContext \lLayer \lPackage\lParametric \lRequirements\lSequence &#160;\lState Machine\lUse Case \l&#45;&gt;gif</title>
<path fill="none" stroke="black" stroke-dasharray="5,2" d="M351.313,-160.3C363.612,-149.956 377.188,-138.844 390,-129 394.643,-125.432 399.854,-121.701 404.537,-118.44"/>
<polygon fill="black" stroke="black" points="404.989,-118.126 404.989,-118.126 404.989,-118.126 404.989,-118.126"/>
</g>
<!-- Analyses and \lSimulations\l
GQM, DSM, \lPugh matrix, \lFTA, DOE, \ldiscrete&#45;event, \lcontinuous, \l... &#45;&gt;Documents -->
</g>
</svg>
