<?xml version="1.0" encoding="UTF-8" standalone="no"?>
<!DOCTYPE svg PUBLIC "-//W3C//DTD SVG 1.1//EN"
 "http://www.w3.org/Graphics/SVG/1.1/DTD/svg11.dtd">
<!-- Generated by graphviz version 2.50.0 (0)
 -->
<!-- Title: G Pages: 1 -->
<svg width="441pt" height="484pt"
 viewBox="0.00 0.00 441.00 484.00" xmlns="http://www.w3.org/2000/svg" xmlns:xlink="http://www.w3.org/1999/xlink">
<g id="graph0" class="graph" transform="scale(1 1) rotate(0) translate(4 480)">
<title>G</title>
<polygon fill="white" stroke="transparent" points="-4,4 -4,-480 437,-480 437,4 -4,4"/>
<!-- ISR UUV\l -->
<g id="node1" class="node">
<title>ISR UUV\l</title>
<polygon fill="none" stroke="black" points="62,-254 0,-254 0,-218 62,-218 62,-254"/>
<text text-anchor="start" x="8" y="-233.2" font-family="Times,serif" font-size="11.00">ISR UUV</text>
</g>
<!-- Performance\l -->
<g id="node2" class="node">
<title>Performance\l</title>
<polygon fill="none" stroke="black" points="178,-364 104,-364 104,-328 178,-328 178,-364"/>
<text text-anchor="start" x="112" y="-343.2" font-family="Times,serif" font-size="11.00">Performance</text>
</g>
<!-- ISR UUV\l&#45;&gt;Performance\l -->
<g id="edge1" class="edge">
<title>ISR UUV\l&#45;&gt;Performance\l</title>
<path fill="none" stroke="black" d="M31,-254.16C31,-285.41 31,-346 31,-346 31,-346 98.76,-346 98.76,-346"/>
<polygon fill="black" stroke="black" points="98.76,-347.75 103.76,-346 98.76,-344.25 98.76,-347.75"/>
</g>
<!-- Communication\l -->
<g id="node7" class="node">
<title>Communication\l</title>
<polygon fill="none" stroke="black" points="184,-171 98,-171 98,-135 184,-135 184,-171"/>
<text text-anchor="start" x="106" y="-150.2" font-family="Times,serif" font-size="11.00">Communication</text>
</g>
<!-- ISR UUV\l&#45;&gt;Communication\l -->
<g id="edge6" class="edge">
<title>ISR UUV\l&#45;&gt;Communication\l</title>
<path fill="none" stroke="black" d="M31,-217.99C31,-193.58 31,-153 31,-153 31,-153 92.84,-153 92.84,-153"/>
<polygon fill="black" stroke="black" points="92.84,-154.75 97.84,-153 92.84,-151.25 92.84,-154.75"/>
</g>
<!-- The UUV shall be capable of completing a
mission of 6 hours duration.\l -->
<g id="node3" class="node">
<title>The UUV shall be capable of completing a
mission of 6 hours duration.\l</title>
<polygon fill="none" stroke="black" points="430.5,-476 222.5,-476 222.5,-440 430.5,-440 430.5,-476"/>
<text text-anchor="middle" x="326.5" y="-461.2" font-family="Times,serif" font-size="11.00">The UUV shall be capable of completing a</text>
<text text-anchor="start" x="230.5" y="-449.2" font-family="Times,serif" font-size="11.00">mission of 6 hours duration.</text>
</g>
<!-- Performance\l&#45;&gt;The UUV shall be capable of completing a
mission of 6 hours duration.\l -->
<g id="edge2" class="edge">
<title>Performance\l&#45;&gt;The UUV shall be capable of completing a
mission of 6 hours duration.\l</title>
<path fill="none" stroke="black" d="M129,-364.49C129,-396.31 129,-458 129,-458 129,-458 217.26,-458 217.26,-458"/>
<polygon fill="black" stroke="black" points="217.26,-459.75 222.26,-458 217.26,-456.25 217.26,-459.75"/>
</g>
<!-- The UUV shall be capable of a top speed
of 14 knots.\l -->
<g id="node4" class="node">
<title>The UUV shall be capable of a top speed
of 14 knots.\l</title>
<polygon fill="none" stroke="black" points="427,-422 226,-422 226,-386 427,-386 427,-422"/>
<text text-anchor="middle" x="326.5" y="-407.2" font-family="Times,serif" font-size="11.00">The UUV shall be capable of a top speed</text>
<text text-anchor="start" x="234" y="-395.2" font-family="Times,serif" font-size="11.00">of 14 knots.</text>
</g>
<!-- Performance\l&#45;&gt;The UUV shall be capable of a top speed
of 14 knots.\l -->
<g id="edge3" class="edge">
<title>Performance\l&#45;&gt;The UUV shall be capable of a top speed
of 14 knots.\l</title>
<path fill="none" stroke="black" d="M154,-364.03C154,-381.06 154,-404 154,-404 154,-404 220.66,-404 220.66,-404"/>
<polygon fill="black" stroke="black" points="220.66,-405.75 225.66,-404 220.66,-402.25 220.66,-405.75"/>
</g>
<!-- The UUV shall be capable of surviving in
an open ocean environment to a depth of
1500 meters.\l -->
<g id="node5" class="node">
<title>The UUV shall be capable of surviving in
an open ocean environment to a depth of
1500 meters.\l</title>
<polygon fill="none" stroke="black" points="428,-368 225,-368 225,-324 428,-324 428,-368"/>
<text text-anchor="middle" x="326.5" y="-355.2" font-family="Times,serif" font-size="11.00">The UUV shall be capable of surviving in</text>
<text text-anchor="middle" x="326.5" y="-343.2" font-family="Times,serif" font-size="11.00">an open ocean environment to a depth of</text>
<text text-anchor="start" x="233" y="-331.2" font-family="Times,serif" font-size="11.00">1500 meters.</text>
</g>
<!-- Performance\l&#45;&gt;The UUV shall be capable of surviving in
an open ocean environment to a depth of
1500 meters.\l -->
<g id="edge4" class="edge">
<title>Performance\l&#45;&gt;The UUV shall be capable of surviving in
an open ocean environment to a depth of
1500 meters.\l</title>
<path fill="none" stroke="black" d="M178.09,-346C178.09,-346 219.89,-346 219.89,-346"/>
<polygon fill="black" stroke="black" points="219.89,-347.75 224.89,-346 219.89,-344.25 219.89,-347.75"/>
</g>
<!-- The UUV shall avoid detection.\l -->
<g id="node6" class="node">
<title>The UUV shall avoid detection.\l</title>
<polygon fill="none" stroke="black" points="405.5,-306 247.5,-306 247.5,-270 405.5,-270 405.5,-306"/>
<text text-anchor="start" x="255.5" y="-285.2" font-family="Times,serif" font-size="11.00">The UUV shall avoid detection.</text>
</g>
<!-- Performance\l&#45;&gt;The UUV shall avoid detection.\l -->
<g id="edge5" class="edge">
<title>Performance\l&#45;&gt;The UUV shall avoid detection.\l</title>
<path fill="none" stroke="black" d="M154,-327.97C154,-310.94 154,-288 154,-288 154,-288 242.32,-288 242.32,-288"/>
<polygon fill="black" stroke="black" points="242.32,-289.75 247.32,-288 242.32,-286.25 242.32,-289.75"/>
</g>
<!-- Mission parameters shall be uploadable
to the UUV\l -->
<g id="node8" class="node">
<title>Mission parameters shall be uploadable
to the UUV\l</title>
<polygon fill="none" stroke="black" points="423,-252 230,-252 230,-216 423,-216 423,-252"/>
<text text-anchor="middle" x="326.5" y="-237.2" font-family="Times,serif" font-size="11.00">Mission parameters shall be uploadable</text>
<text text-anchor="start" x="238" y="-225.2" font-family="Times,serif" font-size="11.00">to the UUV</text>
</g>
<!-- Communication\l&#45;&gt;Mission parameters shall be uploadable
to the UUV\l -->
<g id="edge7" class="edge">
<title>Communication\l&#45;&gt;Mission parameters shall be uploadable
to the UUV\l</title>
<path fill="none" stroke="black" d="M129,-171.2C129,-195.36 129,-235 129,-235 129,-235 224.78,-235 224.78,-235"/>
<polygon fill="black" stroke="black" points="224.78,-236.75 229.78,-235 224.77,-233.25 224.78,-236.75"/>
</g>
<!-- The UUV shall receive remote commands\l -->
<g id="node9" class="node">
<title>The UUV shall receive remote commands\l</title>
<polygon fill="none" stroke="black" points="429,-198 224,-198 224,-162 429,-162 429,-198"/>
<text text-anchor="start" x="232" y="-177.2" font-family="Times,serif" font-size="11.00">The UUV shall receive remote commands</text>
</g>
<!-- Communication\l&#45;&gt;The UUV shall receive remote commands\l -->
<g id="edge8" class="edge">
<title>Communication\l&#45;&gt;The UUV shall receive remote commands\l</title>
<path fill="none" stroke="black" d="M184.02,-166.5C184.02,-166.5 218.81,-166.5 218.81,-166.5"/>
<polygon fill="black" stroke="black" points="218.81,-168.25 223.81,-166.5 218.81,-164.75 218.81,-168.25"/>
</g>
<!-- The UUV shall commence its mission when
commanded\l -->
<g id="node10" class="node">
<title>The UUV shall commence its mission when
commanded\l</title>
<polygon fill="none" stroke="black" points="433,-144 220,-144 220,-108 433,-108 433,-144"/>
<text text-anchor="middle" x="326.5" y="-129.2" font-family="Times,serif" font-size="11.00">The UUV shall commence its mission when</text>
<text text-anchor="start" x="228" y="-117.2" font-family="Times,serif" font-size="11.00">commanded</text>
</g>
<!-- Communication\l&#45;&gt;The UUV shall commence its mission when
commanded\l -->
<g id="edge9" class="edge">
<title>Communication\l&#45;&gt;The UUV shall commence its mission when
commanded\l</title>
<path fill="none" stroke="black" d="M184.02,-139.5C184.02,-139.5 214.74,-139.5 214.74,-139.5"/>
<polygon fill="black" stroke="black" points="214.74,-141.25 219.74,-139.5 214.74,-137.75 214.74,-141.25"/>
</g>
<!-- The UUV shall be capable of transmitting
data in a host ship compatible format\l -->
<g id="node11" class="node">
<title>The UUV shall be capable of transmitting
data in a host ship compatible format\l</title>
<polygon fill="none" stroke="black" points="428,-90 225,-90 225,-54 428,-54 428,-90"/>
<text text-anchor="middle" x="326.5" y="-75.2" font-family="Times,serif" font-size="11.00">The UUV shall be capable of transmitting</text>
<text text-anchor="start" x="233" y="-63.2" font-family="Times,serif" font-size="11.00">data in a host ship compatible format</text>
</g>
<!-- Communication\l&#45;&gt;The UUV shall be capable of transmitting
data in a host ship compatible format\l -->
<g id="edge10" class="edge">
<title>Communication\l&#45;&gt;The UUV shall be capable of transmitting
data in a host ship compatible format\l</title>
<path fill="none" stroke="black" d="M156,-134.62C156,-110.72 156,-72 156,-72 156,-72 219.86,-72 219.86,-72"/>
<polygon fill="black" stroke="black" points="219.86,-73.75 224.86,-72 219.86,-70.25 219.86,-73.75"/>
</g>
<!-- The UUV shall indicate that it is ready
for recovery\l -->
<g id="node12" class="node">
<title>The UUV shall indicate that it is ready
for recovery\l</title>
<polygon fill="none" stroke="black" points="421.5,-36 231.5,-36 231.5,0 421.5,0 421.5,-36"/>
<text text-anchor="middle" x="326.5" y="-21.2" font-family="Times,serif" font-size="11.00">The UUV shall indicate that it is ready</text>
<text text-anchor="start" x="239.5" y="-9.2" font-family="Times,serif" font-size="11.00">for recovery</text>
</g>
<!-- Communication\l&#45;&gt;The UUV shall indicate that it is ready
for recovery\l -->
<g id="edge11" class="edge">
<title>Communication\l&#45;&gt;The UUV shall indicate that it is ready
for recovery\l</title>
<path fill="none" stroke="black" d="M127,-134.79C127,-97.94 127,-18 127,-18 127,-18 226.42,-18 226.42,-18"/>
<polygon fill="black" stroke="black" points="226.42,-19.75 231.42,-18 226.42,-16.25 226.42,-19.75"/>
</g>
</g>
</svg>
