<?xml version="1.0" encoding="UTF-8" standalone="no"?>
<!DOCTYPE svg PUBLIC "-//W3C//DTD SVG 1.1//EN"
 "http://www.w3.org/Graphics/SVG/1.1/DTD/svg11.dtd">
<!-- Generated by graphviz version 2.47.1 (0)
 -->
<!-- Title: G Pages: 1 -->
<svg width="387pt" height="300pt"
 viewBox="0.00 0.00 387.00 300.00" xmlns="http://www.w3.org/2000/svg" xmlns:xlink="http://www.w3.org/1999/xlink">
<g id="graph0" class="graph" transform="scale(1 1) rotate(0) translate(4 296)">
<title>G</title>
<polygon fill="white" stroke="transparent" points="-4,4 -4,-296 383,-296 383,4 -4,4"/>
<!-- Missing Indication -->
<g id="node1" class="node">
<title>Missing Indication</title>
<polygon fill="none" stroke="black" points="97.5,-274 97.5,-288 182.5,-288 182.5,-274 97.5,-274"/>
<text text-anchor="start" x="98.5" y="-278.2" font-family="Times,serif" font-size="11.00">Missing Indication</text>
<image xlink:href="AND_node.svg" width="50px" height="32px" preserveAspectRatio="xMinYMin meet" x="115" y="-274"/>
<image xlink:href="OR_node_bottom.svg" width="50px" height="36px" preserveAspectRatio="xMinYMin meet" x="115" y="-242"/>
</g>
<!-- Resistor Fails -->
<g id="node2" class="node">
<title>Resistor Fails</title>
<polygon fill="none" stroke="black" points="8.5,-112 8.5,-126 71.5,-126 71.5,-112 8.5,-112"/>
<text text-anchor="start" x="9.5" y="-116.2" font-family="Times,serif" font-size="11.00">Resistor Fails</text>
</g>
<!-- Missing Indication&#45;&gt;Resistor Fails -->
<g id="edge1" class="edge">
<title>Missing Indication:s&#45;&gt;Resistor Fails:n</title>
<path fill="none" stroke="black" stroke-width="2" d="M140.5,-241C140.5,-241 43.6,-130.53 40.57,-127.08"/>
<polygon fill="black" stroke="black" stroke-width="2" points="40.5,-127 40.5,-127 40.5,-127 40.5,-127"/>
</g>
<!-- Capacitor Fails -->
<g id="node3" class="node">
<title>Capacitor Fails</title>
<polygon fill="none" stroke="black" points="105.5,-112 105.5,-126 174.5,-126 174.5,-112 105.5,-112"/>
<text text-anchor="start" x="106.5" y="-116.2" font-family="Times,serif" font-size="11.00">Capacitor Fails</text>
</g>
<!-- Missing Indication&#45;&gt;Capacitor Fails -->
<g id="edge2" class="edge">
<title>Missing Indication:s&#45;&gt;Capacitor Fails:n</title>
<path fill="none" stroke="black" stroke-width="2" d="M140.5,-241C140.5,-241 140.5,-130.53 140.5,-127.08"/>
<polygon fill="black" stroke="black" stroke-width="2" points="140.5,-127 140.5,-127 140.5,-127 140.5,-127"/>
</g>
<!-- Both Lamps Out -->
<g id="node4" class="node">
<title>Both Lamps Out</title>
<polygon fill="none" stroke="black" points="208.5,-148 208.5,-162 284.5,-162 284.5,-148 208.5,-148"/>
<text text-anchor="start" x="209.5" y="-152.2" font-family="Times,serif" font-size="11.00">Both Lamps Out</text>
<image xlink:href="OR_node.svg" width="50px" height="36px" preserveAspectRatio="xMinYMin meet" x="221.5" y="-148"/>
<image xlink:href="OR_node_bottom.svg" width="50px" height="36px" preserveAspectRatio="xMinYMin meet" x="221.5" y="-112"/>
</g>
<!-- Missing Indication&#45;&gt;Both Lamps Out -->
<g id="edge3" class="edge">
<title>Missing Indication:s&#45;&gt;Both Lamps Out:n</title>
<path fill="none" stroke="black" stroke-width="2" d="M140.5,-241C140.5,-241 243.21,-165.42 246.42,-163.06"/>
<polygon fill="black" stroke="black" stroke-width="2" points="246.5,-163 246.5,-163 246.5,-163 246.5,-163"/>
</g>
<!-- Lamp 1 Fails -->
<g id="node5" class="node">
<title>Lamp 1 Fails</title>
<polygon fill="none" stroke="black" points="120.5,-11 120.5,-25 181.5,-25 181.5,-11 120.5,-11"/>
<text text-anchor="start" x="121.5" y="-15.2" font-family="Times,serif" font-size="11.00">Lamp 1 Fails</text>
</g>
<!-- Both Lamps Out&#45;&gt;Lamp 1 Fails -->
<g id="edge4" class="edge">
<title>Both Lamps Out:s&#45;&gt;Lamp 1 Fails:n</title>
<path fill="none" stroke="black" stroke-width="2" d="M246.5,-111C246.5,-111 154.45,-28.64 151.57,-26.06"/>
<polygon fill="black" stroke="black" stroke-width="2" points="151.5,-26 151.5,-26 151.5,-26 151.5,-26"/>
</g>
<!-- Lamp 2 Fails -->
<g id="node6" class="node">
<title>Lamp 2 Fails</title>
<polygon fill="none" stroke="black" points="215.5,-11 215.5,-25 276.5,-25 276.5,-11 215.5,-11"/>
<text text-anchor="start" x="216.5" y="-15.2" font-family="Times,serif" font-size="11.00">Lamp 2 Fails</text>
</g>
<!-- Both Lamps Out&#45;&gt;Lamp 2 Fails -->
<g id="edge5" class="edge">
<title>Both Lamps Out:s&#45;&gt;Lamp 2 Fails:n</title>
<path fill="none" stroke="black" stroke-width="2" d="M246.5,-111C246.5,-111 246.5,-28.64 246.5,-26.06"/>
<polygon fill="black" stroke="black" stroke-width="2" points="246.5,-26 246.5,-26 246.5,-26 246.5,-26"/>
</g>
<!-- Lamp 3 Fails -->
<g id="node7" class="node">
<title>Lamp 3 Fails</title>
<polygon fill="none" stroke="black" points="310.5,-11 310.5,-25 371.5,-25 371.5,-11 310.5,-11"/>
<text text-anchor="start" x="311.5" y="-15.2" font-family="Times,serif" font-size="11.00">Lamp 3 Fails</text>
</g>
<!-- Both Lamps Out&#45;&gt;Lamp 3 Fails -->
<g id="edge6" class="edge">
<title>Both Lamps Out:s&#45;&gt;Lamp 3 Fails:n</title>
<path fill="none" stroke="black" stroke-width="2" d="M246.5,-111C246.5,-111 338.55,-28.64 341.43,-26.06"/>
<polygon fill="black" stroke="black" stroke-width="2" points="341.5,-26 341.5,-26 341.5,-26 341.5,-26"/>
</g>
</g>
</svg>
