<?xml version="1.0" encoding="UTF-8" standalone="no"?>
<!DOCTYPE svg PUBLIC "-//W3C//DTD SVG 1.1//EN"
 "http://www.w3.org/Graphics/SVG/1.1/DTD/svg11.dtd">
<!-- Generated by graphviz version 2.38.0 (20140413.2041)
 -->
<!-- Title: G Pages: 1 -->
<svg width="345pt" height="260pt"
 viewBox="0.00 0.00 345.00 260.00" xmlns="http://www.w3.org/2000/svg" xmlns:xlink="http://www.w3.org/1999/xlink">
<g id="graph0" class="graph" transform="scale(1 1) rotate(0) translate(179 130)">
<title>G</title>
<polygon fill="white" stroke="none" points="-179,130 -179,-130 166,-130 166,130 -179,130"/>
<!-- Course Portal -->
<g id="node1" class="node"><title>Course Portal</title>
<polygon fill="none" stroke="black" points="162,-126 -18,-126 -18,126 162,126 162,-126"/>
<text text-anchor="start" x="35" y="-117.2" font-family="arial" font-weight="bold" font-size="11.00">Course Portal</text>
</g>
<!-- Student -->
<g id="node2" class="node"><title>Student</title>
<image xlink:href="actor.svg" width="50px" height="77px" preserveAspectRatio="xMinYMin meet" x="-169" y="-80.5"/>
<text text-anchor="middle" x="-144" y="-6.7" font-family="arial" font-size="11.00">Student</text>
</g>
<!-- Post Discussion -->
<g id="node4" class="node"><title>Post Discussion</title>
<ellipse fill="none" stroke="black" cx="72" cy="-72" rx="52.8358" ry="25"/>
<text text-anchor="middle" x="72" y="-69.2" font-family="arial" font-size="11.00">Post Discussion</text>
</g>
<!-- Student&#45;&gt;Post Discussion -->
<g id="edge1" class="edge"><title>Student&#45;&gt;Post Discussion</title>
<path fill="none" stroke="black" d="M-116.643,-45.7995C-84.7619,-50.2275 -31.0973,-57.6809 10.8609,-63.5085"/>
<polygon fill="black" stroke="black" points="10.5956,-67.0051 20.982,-64.9142 11.5586,-60.0717 10.5956,-67.0051"/>
</g>
<!-- Take Quiz -->
<g id="node5" class="node"><title>Take Quiz</title>
<ellipse fill="none" stroke="black" cx="72" cy="-0" rx="45" ry="25"/>
<text text-anchor="middle" x="72" y="2.8" font-family="arial" font-size="11.00">Take Quiz</text>
</g>
<!-- Student&#45;&gt;Take Quiz -->
<g id="edge3" class="edge"><title>Student&#45;&gt;Take Quiz</title>
<path fill="none" stroke="black" d="M-116.643,-36.6807C-82.5926,-30.0597 -23.6935,-18.6071 19.2526,-10.2564"/>
<polygon fill="black" stroke="black" points="20.1047,-13.6564 29.2528,-8.31196 18.7685,-6.78508 20.1047,-13.6564"/>
</g>
<!-- Instructor -->
<g id="node3" class="node"><title>Instructor</title>
<image xlink:href="actor.svg" width="50px" height="77px" preserveAspectRatio="xMinYMin meet" x="-169" y="3.5"/>
<text text-anchor="middle" x="-144" y="77.3" font-family="arial" font-size="11.00">Instructor</text>
</g>
<!-- Instructor&#45;&gt;Post Discussion -->
<g id="edge2" class="edge"><title>Instructor&#45;&gt;Post Discussion</title>
<path fill="none" stroke="black" d="M-112.592,25.4234C-75.6382,5.92015 -14.0367,-26.5918 27.7439,-48.6426"/>
<polygon fill="black" stroke="black" points="26.1256,-51.746 36.6031,-53.3183 29.3929,-45.5553 26.1256,-51.746"/>
</g>
<!-- Create Quiz -->
<g id="node6" class="node"><title>Create Quiz</title>
<ellipse fill="none" stroke="black" cx="72" cy="72" rx="45" ry="25"/>
<text text-anchor="middle" x="72" y="74.8" font-family="arial" font-size="11.00">Create Quiz</text>
</g>
<!-- Instructor&#45;&gt;Create Quiz -->
<g id="edge4" class="edge"><title>Instructor&#45;&gt;Create Quiz</title>
<path fill="none" stroke="black" d="M-112.592,46.3623C-78.3986,51.1113 -23.1022,58.7914 18.0677,64.5094"/>
<polygon fill="black" stroke="black" points="18.7855,61.0754 28.2089,65.9179 17.8224,68.0089 18.7855,61.0754"/>
</g>
</g>
</svg>
